<svg xmlns="http://www.w3.org/2000/svg" xmlns:xlink="http://www.w3.org/1999/xlink" width="167" zoomAndPan="magnify" viewBox="0 0 125.25 30.750001" height="41" preserveAspectRatio="xMidYMid meet" version="1.0"><defs><g/><clipPath id="d8d8488561"><path d="M 17.46875 3 L 30.214844 3 L 30.214844 14.8125 L 17.46875 14.8125 Z M 17.46875 3 " clip-rule="nonzero"/></clipPath><clipPath id="53b5faa8fb"><path d="M 17.460938 14.789062 L 30.207031 14.789062 L 30.207031 30.503906 L 17.460938 30.503906 Z M 17.460938 14.789062 " clip-rule="nonzero"/></clipPath><clipPath id="3a326acdf7"><path d="M 17.46875 19.777344 L 30.207031 19.777344 L 30.207031 30.503906 L 17.46875 30.503906 Z M 17.46875 19.777344 " clip-rule="nonzero"/></clipPath><clipPath id="bf667c6f59"><path d="M 23.835938 19.777344 C 27.355469 19.777344 30.207031 22.628906 30.207031 26.144531 L 30.207031 26.871094 C 30.207031 30.390625 27.355469 33.242188 23.835938 33.242188 C 20.320312 33.242188 17.46875 30.390625 17.46875 26.871094 L 17.46875 26.144531 C 17.46875 22.628906 20.320312 19.777344 23.835938 19.777344 Z M 23.835938 19.777344 " clip-rule="nonzero"/></clipPath><clipPath id="88e687c21d"><path d="M 17.460938 15.214844 L 27.832031 15.214844 L 27.832031 30.503906 L 17.460938 30.503906 Z M 17.460938 15.214844 " clip-rule="nonzero"/></clipPath><clipPath id="e7df3f2eb6"><path d="M 17.460938 15.214844 L 22 15.214844 L 22 19 L 17.460938 19 Z M 17.460938 15.214844 " clip-rule="nonzero"/></clipPath></defs><g clip-path="url(#d8d8488561)"><path fill="#ed203a" d="M 26.1875 6.652344 L 26.1875 14.25 L 18.058594 14.25 L 18.058594 10.929688 L 24.992188 8.386719 L 24.992188 7.09375 Z M 24.308594 3.867188 C 23.898438 3.867188 23.582031 4.089844 23.570312 4.371094 L 23.398438 8.402344 L 17.523438 10.554688 L 17.523438 14.785156 L 30.148438 14.785156 L 30.148438 8.113281 L 26.722656 5.886719 L 25.132812 6.46875 L 25.042969 4.371094 C 25.03125 4.089844 24.714844 3.867188 24.308594 3.867188 Z M 24.308594 3.867188 " fill-opacity="1" fill-rule="evenodd"/></g><path fill="#ed203a" d="M 21.828125 5.59375 C 21.457031 5.59375 21.167969 5.796875 21.15625 6.054688 L 21.03125 8.917969 L 22.601562 8.34375 L 22.5 6.054688 C 22.488281 5.796875 22.203125 5.59375 21.828125 5.59375 Z M 21.828125 5.59375 " fill-opacity="1" fill-rule="evenodd"/><path fill="#ed203a" d="M 19.601562 7.140625 C 19.292969 7.140625 19.054688 7.3125 19.046875 7.523438 L 18.953125 9.683594 L 20.230469 9.214844 L 20.15625 7.523438 C 20.148438 7.3125 19.910156 7.140625 19.601562 7.140625 Z M 19.601562 7.140625 " fill-opacity="1" fill-rule="evenodd"/><path fill="#ed203a" d="M 24.28125 3.40625 C 24.28125 3.40625 24.230469 2.699219 23.148438 2.410156 C 21.777344 2.042969 22.472656 0.00390625 22.472656 0.00390625 C 22.472656 0.00390625 22.648438 1.375 23.90625 1.710938 C 24.941406 1.988281 24.878906 3.058594 24.28125 3.40625 Z M 24.28125 3.40625 " fill-opacity="1" fill-rule="nonzero"/><path fill="#ed203a" d="M 21.828125 5.324219 C 21.828125 5.324219 21.792969 4.832031 21.039062 4.632812 C 20.089844 4.375 20.570312 2.960938 20.570312 2.960938 C 20.570312 2.960938 20.695312 3.914062 21.566406 4.148438 C 22.285156 4.339844 22.246094 5.082031 21.828125 5.324219 Z M 21.828125 5.324219 " fill-opacity="1" fill-rule="nonzero"/><path fill="#ed203a" d="M 24.898438 9.824219 L 24.898438 12.53125 L 23.179688 12.675781 L 23.179688 10.351562 Z M 24.898438 9.824219 " fill-opacity="1" fill-rule="evenodd"/><path fill="#ed203a" d="M 22.195312 10.65625 L 22.195312 12.761719 L 20.621094 12.894531 L 20.621094 11.140625 Z M 22.195312 10.65625 " fill-opacity="1" fill-rule="evenodd"/><path fill="#ed203a" d="M 19.972656 11.339844 L 19.972656 12.949219 L 18.5625 13.066406 L 18.5625 11.773438 Z M 19.972656 11.339844 " fill-opacity="1" fill-rule="evenodd"/><path stroke-linecap="butt" transform="matrix(0.000000000156664, -0.0897621, 0.0897621, 0.000000000156664, 29.846333, 14.788846)" fill="none" stroke-linejoin="miter" d="M -0.00241742 2.016556 L 72.324199 2.016556 " stroke="#ed203a" stroke-width="4" stroke-opacity="1" stroke-miterlimit="4"/><g clip-path="url(#53b5faa8fb)"><path fill="#ed203a" d="M 17.460938 14.789062 L 30.207031 14.789062 L 30.207031 31.019531 L 17.460938 31.019531 Z M 17.460938 14.789062 " fill-opacity="1" fill-rule="nonzero"/></g><g clip-path="url(#3a326acdf7)"><g clip-path="url(#bf667c6f59)"><path fill="#ed203a" d="M 17.46875 19.777344 L 30.207031 19.777344 L 30.207031 33.261719 L 17.46875 33.261719 Z M 17.46875 19.777344 " fill-opacity="1" fill-rule="nonzero"/></g></g><g clip-path="url(#88e687c21d)"><path fill="#ffffff" d="M 23.28125 31.851562 L 13.113281 31.851562 C 12.929688 31.851562 12.753906 31.816406 12.582031 31.746094 C 12.414062 31.675781 12.261719 31.578125 12.132812 31.445312 C 12.003906 31.316406 11.902344 31.167969 11.832031 30.996094 C 11.761719 30.828125 11.726562 30.648438 11.726562 30.464844 L 11.726562 25.1875 L 9.34375 23.828125 C 9.070312 23.671875 8.875 23.445312 8.753906 23.15625 C 8.632812 22.863281 8.613281 22.566406 8.695312 22.257812 L 9.78125 18.285156 C 9.894531 17.867188 10.148438 17.566406 10.542969 17.386719 L 15.234375 15.257812 C 15.292969 15.226562 15.355469 15.214844 15.425781 15.214844 L 20.96875 15.214844 C 21.042969 15.214844 21.113281 15.230469 21.175781 15.261719 L 25.46875 17.410156 C 25.800781 17.574219 26.027344 17.828125 26.152344 18.175781 L 27.609375 22.179688 C 27.722656 22.5 27.722656 22.816406 27.609375 23.132812 C 27.492188 23.449219 27.285156 23.691406 26.992188 23.859375 L 24.667969 25.1875 L 24.667969 30.464844 C 24.667969 30.648438 24.632812 30.828125 24.5625 30.996094 C 24.492188 31.167969 24.390625 31.316406 24.261719 31.445312 C 24.128906 31.578125 23.980469 31.675781 23.8125 31.746094 C 23.640625 31.816406 23.464844 31.851562 23.28125 31.851562 Z M 12.652344 22.148438 L 12.652344 30.464844 C 12.652344 30.59375 12.695312 30.703125 12.785156 30.792969 C 12.875 30.882812 12.984375 30.929688 13.113281 30.929688 L 23.28125 30.929688 C 23.410156 30.929688 23.515625 30.882812 23.609375 30.792969 C 23.699219 30.703125 23.742188 30.59375 23.742188 30.464844 L 23.742188 22.148438 C 23.742188 22.019531 23.789062 21.910156 23.878906 21.820312 C 23.96875 21.730469 24.078125 21.683594 24.207031 21.683594 C 24.332031 21.683594 24.441406 21.730469 24.53125 21.820312 C 24.621094 21.910156 24.667969 22.019531 24.667969 22.148438 L 24.667969 24.125 L 26.535156 23.058594 C 26.632812 23 26.699219 22.921875 26.738281 22.816406 C 26.777344 22.707031 26.777344 22.601562 26.738281 22.496094 L 25.285156 18.492188 C 25.242188 18.375 25.164062 18.292969 25.054688 18.238281 L 20.859375 16.140625 L 15.523438 16.140625 L 10.925781 18.230469 C 10.792969 18.289062 10.710938 18.386719 10.671875 18.527344 L 9.585938 22.503906 C 9.523438 22.734375 9.597656 22.90625 9.804688 23.027344 L 11.726562 24.125 L 11.726562 22.148438 C 11.726562 22.019531 11.773438 21.910156 11.863281 21.820312 C 11.953125 21.730469 12.0625 21.683594 12.1875 21.683594 C 12.316406 21.683594 12.425781 21.730469 12.515625 21.820312 C 12.605469 21.910156 12.652344 22.019531 12.652344 22.148438 Z M 12.652344 22.148438 " fill-opacity="1" fill-rule="nonzero"/></g><g clip-path="url(#e7df3f2eb6)"><path fill="#ffffff" d="M 18.195312 18.449219 C 17.8125 18.449219 17.4375 18.390625 17.074219 18.265625 C 16.710938 18.140625 16.378906 17.960938 16.074219 17.726562 C 15.773438 17.492188 15.515625 17.210938 15.304688 16.890625 C 15.09375 16.570312 14.941406 16.222656 14.847656 15.851562 C 14.816406 15.726562 14.832031 15.609375 14.898438 15.5 C 14.960938 15.390625 15.058594 15.320312 15.179688 15.289062 C 15.304688 15.257812 15.421875 15.273438 15.53125 15.339844 C 15.640625 15.40625 15.710938 15.5 15.742188 15.625 C 15.8125 15.894531 15.925781 16.148438 16.078125 16.382812 C 16.234375 16.617188 16.421875 16.820312 16.644531 16.992188 C 16.867188 17.164062 17.109375 17.296875 17.375 17.386719 C 17.640625 17.480469 17.914062 17.523438 18.195312 17.527344 C 18.476562 17.527344 18.75 17.480469 19.015625 17.390625 C 19.28125 17.300781 19.527344 17.167969 19.75 16.996094 C 19.972656 16.824219 20.160156 16.621094 20.3125 16.386719 C 20.46875 16.152344 20.582031 15.898438 20.652344 15.625 C 20.683594 15.503906 20.753906 15.410156 20.863281 15.34375 C 20.972656 15.28125 21.089844 15.261719 21.214844 15.296875 C 21.335938 15.328125 21.433594 15.398438 21.496094 15.507812 C 21.5625 15.617188 21.578125 15.734375 21.546875 15.855469 C 21.453125 16.226562 21.296875 16.574219 21.085938 16.894531 C 20.875 17.214844 20.617188 17.492188 20.316406 17.726562 C 20.011719 17.960938 19.679688 18.140625 19.316406 18.265625 C 18.953125 18.386719 18.582031 18.449219 18.195312 18.449219 Z M 18.195312 18.449219 " fill-opacity="1" fill-rule="nonzero"/></g><path fill="#ffffff" d="M 22.125 24.457031 L 19.351562 24.457031 C 19.160156 24.457031 18.996094 24.390625 18.863281 24.253906 C 18.726562 24.121094 18.660156 23.957031 18.660156 23.765625 L 18.660156 20.992188 C 18.660156 20.800781 18.726562 20.636719 18.863281 20.5 C 18.996094 20.367188 19.160156 20.296875 19.351562 20.296875 L 22.125 20.296875 C 22.316406 20.296875 22.480469 20.367188 22.617188 20.5 C 22.75 20.636719 22.820312 20.800781 22.820312 20.992188 L 22.820312 23.765625 C 22.820312 23.957031 22.75 24.121094 22.617188 24.253906 C 22.480469 24.390625 22.316406 24.457031 22.125 24.457031 Z M 19.582031 23.535156 L 21.894531 23.535156 L 21.894531 21.222656 L 19.582031 21.222656 Z M 19.582031 23.535156 " fill-opacity="1" fill-rule="nonzero"/><g fill="#000000" fill-opacity="1"><g transform="translate(31.921483, 23.073337)"><g><path d="M 1.9375 0 L 0.875 0 L 0.875 -7.765625 L 6.265625 -7.765625 L 6.265625 -6.84375 L 1.9375 -6.84375 L 1.9375 -4.46875 L 5.734375 -4.46875 L 5.734375 -3.53125 L 1.9375 -3.53125 Z M 1.9375 0 "/></g></g></g><g fill="#000000" fill-opacity="1"><g transform="translate(38.3924, 23.073337)"><g><path d="M 4.15625 -2.890625 C 4.082031 -2.816406 3.941406 -2.753906 3.734375 -2.703125 C 3.535156 -2.660156 3.148438 -2.601562 2.578125 -2.53125 C 2.171875 -2.476562 1.867188 -2.375 1.671875 -2.21875 C 1.472656 -2.070312 1.375 -1.867188 1.375 -1.609375 C 1.375 -1.296875 1.457031 -1.050781 1.625 -0.875 C 1.789062 -0.707031 2.054688 -0.625 2.421875 -0.625 C 2.867188 -0.625 3.269531 -0.753906 3.625 -1.015625 C 3.976562 -1.273438 4.15625 -1.59375 4.15625 -1.96875 Z M 0.671875 -3.9375 C 0.691406 -4.570312 0.894531 -5.046875 1.28125 -5.359375 C 1.675781 -5.671875 2.253906 -5.828125 3.015625 -5.828125 C 3.609375 -5.828125 4.109375 -5.691406 4.515625 -5.421875 C 4.921875 -5.148438 5.125 -4.757812 5.125 -4.25 L 5.125 -0.984375 C 5.125 -0.765625 5.222656 -0.65625 5.421875 -0.65625 C 5.503906 -0.65625 5.609375 -0.664062 5.734375 -0.6875 L 5.734375 0 C 5.566406 0.0703125 5.390625 0.109375 5.203125 0.109375 C 4.867188 0.109375 4.625 0.0390625 4.46875 -0.09375 C 4.3125 -0.238281 4.226562 -0.457031 4.21875 -0.75 C 3.675781 -0.144531 2.992188 0.15625 2.171875 0.15625 C 1.640625 0.15625 1.210938 0.00390625 0.890625 -0.296875 C 0.566406 -0.597656 0.40625 -0.988281 0.40625 -1.46875 C 0.40625 -1.96875 0.546875 -2.367188 0.828125 -2.671875 C 1.109375 -2.984375 1.519531 -3.171875 2.0625 -3.234375 L 3.734375 -3.4375 C 4.035156 -3.488281 4.1875 -3.710938 4.1875 -4.109375 C 4.1875 -4.410156 4.078125 -4.640625 3.859375 -4.796875 C 3.640625 -4.953125 3.304688 -5.03125 2.859375 -5.03125 C 2.460938 -5.03125 2.15625 -4.941406 1.9375 -4.765625 C 1.726562 -4.585938 1.601562 -4.3125 1.5625 -3.9375 Z M 0.671875 -3.9375 "/></g></g></g><g fill="#000000" fill-opacity="1"><g transform="translate(44.339936, 23.073337)"><g><path d="M 4.28125 -3.765625 C 4.144531 -4.566406 3.695312 -4.96875 2.9375 -4.96875 C 2.46875 -4.96875 2.09375 -4.78125 1.8125 -4.40625 C 1.53125 -4.03125 1.390625 -3.507812 1.390625 -2.84375 C 1.390625 -2.113281 1.519531 -1.566406 1.78125 -1.203125 C 2.039062 -0.835938 2.425781 -0.65625 2.9375 -0.65625 C 3.269531 -0.65625 3.5625 -0.78125 3.8125 -1.03125 C 4.0625 -1.28125 4.21875 -1.601562 4.28125 -2 L 5.203125 -2 C 5.109375 -1.300781 4.859375 -0.765625 4.453125 -0.390625 C 4.054688 -0.0234375 3.539062 0.15625 2.90625 0.15625 C 2.164062 0.15625 1.554688 -0.09375 1.078125 -0.59375 C 0.609375 -1.101562 0.375 -1.796875 0.375 -2.671875 C 0.375 -3.628906 0.609375 -4.394531 1.078125 -4.96875 C 1.554688 -5.539062 2.226562 -5.828125 3.09375 -5.828125 C 3.71875 -5.828125 4.210938 -5.640625 4.578125 -5.265625 C 4.953125 -4.890625 5.160156 -4.390625 5.203125 -3.765625 Z M 4.28125 -3.765625 "/></g></g></g><g fill="#000000" fill-opacity="1"><g transform="translate(49.890968, 23.073337)"><g><path d="M 1.859375 -4.875 L 1.859375 -1.1875 C 1.859375 -1.039062 1.894531 -0.929688 1.96875 -0.859375 C 2.050781 -0.785156 2.195312 -0.75 2.40625 -0.75 L 2.765625 -0.75 L 2.765625 0 C 2.421875 0.0507812 2.1875 0.078125 2.0625 0.078125 C 1.65625 0.078125 1.359375 -0.015625 1.171875 -0.203125 C 0.992188 -0.398438 0.90625 -0.710938 0.90625 -1.140625 L 0.90625 -4.875 L 0.140625 -4.875 L 0.140625 -5.65625 L 0.90625 -5.65625 L 0.90625 -7.25 L 1.859375 -7.25 L 1.859375 -5.65625 L 2.765625 -5.65625 L 2.765625 -4.875 Z M 1.859375 -4.875 "/></g></g></g><g fill="#000000" fill-opacity="1"><g transform="translate(52.888527, 23.073337)"><g><path d="M 1.375 -2.84375 C 1.375 -2.207031 1.515625 -1.6875 1.796875 -1.28125 C 2.085938 -0.875 2.492188 -0.671875 3.015625 -0.671875 C 3.554688 -0.671875 3.96875 -0.882812 4.25 -1.3125 C 4.53125 -1.738281 4.671875 -2.25 4.671875 -2.84375 C 4.671875 -3.4375 4.53125 -3.941406 4.25 -4.359375 C 3.96875 -4.773438 3.554688 -4.984375 3.015625 -4.984375 C 2.515625 -4.984375 2.113281 -4.785156 1.8125 -4.390625 C 1.519531 -4.003906 1.375 -3.488281 1.375 -2.84375 Z M 0.40625 -2.84375 C 0.40625 -3.6875 0.640625 -4.394531 1.109375 -4.96875 C 1.578125 -5.539062 2.210938 -5.828125 3.015625 -5.828125 C 3.835938 -5.828125 4.484375 -5.535156 4.953125 -4.953125 C 5.421875 -4.367188 5.65625 -3.664062 5.65625 -2.84375 C 5.65625 -2.007812 5.421875 -1.300781 4.953125 -0.71875 C 4.492188 -0.132812 3.847656 0.15625 3.015625 0.15625 C 2.210938 0.15625 1.578125 -0.125 1.109375 -0.6875 C 0.640625 -1.25 0.40625 -1.96875 0.40625 -2.84375 Z M 0.40625 -2.84375 "/></g></g></g><g fill="#000000" fill-opacity="1"><g transform="translate(58.941796, 23.073337)"><g><path d="M 1.671875 0 L 0.71875 0 L 0.71875 -5.65625 L 1.609375 -5.65625 L 1.609375 -4.71875 L 1.640625 -4.71875 C 2.046875 -5.457031 2.570312 -5.828125 3.21875 -5.828125 C 3.320312 -5.828125 3.40625 -5.816406 3.46875 -5.796875 L 3.46875 -4.8125 L 3.125 -4.8125 C 2.695312 -4.8125 2.347656 -4.664062 2.078125 -4.375 C 1.804688 -4.082031 1.671875 -3.722656 1.671875 -3.296875 Z M 1.671875 0 "/></g></g></g><g fill="#000000" fill-opacity="1"><g transform="translate(62.468025, 23.073337)"><g><path d="M 4.21875 -5.65625 L 5.265625 -5.65625 L 3.234375 -0.109375 C 3.203125 -0.00390625 3.164062 0.0859375 3.125 0.171875 C 2.820312 0.992188 2.554688 1.554688 2.328125 1.859375 C 2.109375 2.160156 1.753906 2.3125 1.265625 2.3125 C 0.992188 2.3125 0.78125 2.285156 0.625 2.234375 L 0.625 1.359375 C 0.800781 1.421875 0.992188 1.453125 1.203125 1.453125 C 1.441406 1.453125 1.613281 1.378906 1.71875 1.234375 C 1.820312 1.085938 1.984375 0.726562 2.203125 0.15625 L 0.09375 -5.65625 L 1.171875 -5.65625 L 2.6875 -1.046875 L 2.703125 -1.046875 Z M 4.21875 -5.65625 "/></g></g></g><g fill="#000000" fill-opacity="1"><g transform="translate(67.841754, 23.073337)"><g><path d="M 3.921875 -4.140625 C 4.335938 -4.140625 4.644531 -4.234375 4.84375 -4.421875 C 5.039062 -4.617188 5.140625 -4.921875 5.140625 -5.328125 C 5.140625 -5.734375 5.023438 -6.019531 4.796875 -6.1875 C 4.578125 -6.351562 4.242188 -6.4375 3.796875 -6.4375 L 2.421875 -6.4375 L 2.421875 -4.140625 Z M 2.421875 0 L 0.796875 0 L 0.796875 -7.765625 L 4.34375 -7.765625 C 5.082031 -7.765625 5.664062 -7.539062 6.09375 -7.09375 C 6.53125 -6.65625 6.75 -6.050781 6.75 -5.28125 C 6.75 -4.613281 6.535156 -4.03125 6.109375 -3.53125 C 5.691406 -3.039062 5.082031 -2.796875 4.28125 -2.796875 L 2.421875 -2.796875 Z M 2.421875 0 "/></g></g></g><g fill="#000000" fill-opacity="1"><g transform="translate(74.994657, 23.073337)"><g><path d="M 0.734375 -5.765625 L 2.1875 -5.765625 L 2.1875 -4.765625 L 2.21875 -4.765625 C 2.394531 -5.140625 2.609375 -5.421875 2.859375 -5.609375 C 3.109375 -5.804688 3.421875 -5.90625 3.796875 -5.90625 C 3.890625 -5.90625 3.988281 -5.898438 4.09375 -5.890625 L 4.09375 -4.34375 C 4.019531 -4.363281 3.875 -4.375 3.65625 -4.375 C 3.175781 -4.375 2.820312 -4.257812 2.59375 -4.03125 C 2.363281 -3.800781 2.25 -3.457031 2.25 -3 L 2.25 0 L 0.734375 0 Z M 0.734375 -5.765625 "/></g></g></g><g fill="#000000" fill-opacity="1"><g transform="translate(79.266309, 23.073337)"><g><path d="M 2.25 -6.4375 L 0.734375 -6.4375 L 0.734375 -7.84375 L 2.25 -7.84375 Z M 2.25 -5.765625 L 2.25 0 L 0.734375 0 L 0.734375 -5.765625 Z M 2.25 -5.765625 "/></g></g></g><g fill="#000000" fill-opacity="1"><g transform="translate(82.263867, 23.073337)"><g><path d="M 5.953125 0 L 4.4375 0 L 4.4375 -3.578125 C 4.4375 -3.910156 4.359375 -4.171875 4.203125 -4.359375 C 4.046875 -4.546875 3.796875 -4.640625 3.453125 -4.640625 C 3.085938 -4.640625 2.796875 -4.519531 2.578125 -4.28125 C 2.359375 -4.039062 2.25 -3.710938 2.25 -3.296875 L 2.25 0 L 0.734375 0 L 0.734375 -5.765625 L 2.1875 -5.765625 L 2.1875 -4.921875 L 2.21875 -4.921875 C 2.582031 -5.578125 3.15625 -5.90625 3.9375 -5.90625 C 4.519531 -5.90625 5 -5.738281 5.375 -5.40625 C 5.757812 -5.070312 5.953125 -4.597656 5.953125 -3.984375 Z M 5.953125 0 "/></g></g></g><g fill="#000000" fill-opacity="1"><g transform="translate(88.872239, 23.073337)"><g><path d="M 2.4375 -5.765625 L 3.375 -5.765625 L 3.375 -4.671875 L 2.4375 -4.671875 L 2.4375 -1.453125 C 2.4375 -1.296875 2.476562 -1.191406 2.5625 -1.140625 C 2.644531 -1.097656 2.769531 -1.078125 2.9375 -1.078125 C 3.113281 -1.078125 3.257812 -1.085938 3.375 -1.109375 L 3.375 0.015625 C 3.15625 0.0546875 2.878906 0.078125 2.546875 0.078125 C 1.953125 0.078125 1.53125 -0.0078125 1.28125 -0.1875 C 1.039062 -0.375 0.921875 -0.703125 0.921875 -1.171875 L 0.921875 -4.671875 L 0.125 -4.671875 L 0.125 -5.765625 L 0.921875 -5.765625 L 0.921875 -7.3125 L 2.4375 -7.3125 Z M 2.4375 -5.765625 "/></g></g></g><g fill="#000000" fill-opacity="1"><g transform="translate(92.509486, 23.073337)"><g><path d="M 3.953125 -4 C 3.929688 -4.25 3.84375 -4.441406 3.6875 -4.578125 C 3.53125 -4.710938 3.28125 -4.78125 2.9375 -4.78125 C 2.625 -4.78125 2.394531 -4.726562 2.25 -4.625 C 2.101562 -4.53125 2.03125 -4.40625 2.03125 -4.25 C 2.03125 -4.09375 2.09375 -3.972656 2.21875 -3.890625 C 2.34375 -3.804688 2.820312 -3.664062 3.65625 -3.46875 C 4.519531 -3.269531 5.066406 -3.035156 5.296875 -2.765625 C 5.523438 -2.503906 5.640625 -2.175781 5.640625 -1.78125 C 5.640625 -1.132812 5.414062 -0.640625 4.96875 -0.296875 C 4.519531 0.0351562 3.847656 0.203125 2.953125 0.203125 C 2.171875 0.203125 1.554688 0.0390625 1.109375 -0.28125 C 0.660156 -0.613281 0.40625 -1.125 0.34375 -1.8125 L 1.890625 -1.8125 C 1.890625 -1.519531 1.984375 -1.300781 2.171875 -1.15625 C 2.367188 -1.007812 2.664062 -0.9375 3.0625 -0.9375 C 3.394531 -0.9375 3.648438 -0.984375 3.828125 -1.078125 C 4.003906 -1.179688 4.09375 -1.316406 4.09375 -1.484375 C 4.09375 -1.648438 4.023438 -1.78125 3.890625 -1.875 C 3.765625 -1.96875 3.328125 -2.09375 2.578125 -2.25 C 1.753906 -2.425781 1.207031 -2.65625 0.9375 -2.9375 C 0.664062 -3.226562 0.53125 -3.570312 0.53125 -3.96875 C 0.53125 -4.539062 0.734375 -5.003906 1.140625 -5.359375 C 1.554688 -5.722656 2.160156 -5.90625 2.953125 -5.90625 C 3.742188 -5.90625 4.34375 -5.742188 4.75 -5.421875 C 5.164062 -5.097656 5.398438 -4.625 5.453125 -4 Z M 3.953125 -4 "/></g></g></g><g fill="#000000" fill-opacity="1"><g transform="translate(31.921483, 28.263047)"><g><path d="M 1.046875 0 L 0.671875 0 L 0.671875 -0.75 L 0.015625 -1.921875 L 0.421875 -1.921875 L 0.859375 -1.15625 L 0.890625 -1.15625 L 1.3125 -1.921875 L 1.71875 -1.921875 L 1.046875 -0.75 Z M 1.046875 0 "/></g></g><g transform="translate(33.641788, 28.263047)"><g><path d="M 0.84375 0.03125 C 0.695312 0.03125 0.570312 0.00390625 0.46875 -0.046875 C 0.363281 -0.109375 0.28125 -0.195312 0.21875 -0.3125 C 0.15625 -0.425781 0.125 -0.5625 0.125 -0.71875 C 0.125 -0.882812 0.15625 -1.019531 0.21875 -1.125 C 0.28125 -1.238281 0.363281 -1.320312 0.46875 -1.375 C 0.570312 -1.4375 0.695312 -1.46875 0.84375 -1.46875 C 0.976562 -1.46875 1.097656 -1.4375 1.203125 -1.375 C 1.316406 -1.320312 1.398438 -1.238281 1.453125 -1.125 C 1.515625 -1.019531 1.546875 -0.882812 1.546875 -0.71875 C 1.546875 -0.5625 1.515625 -0.425781 1.453125 -0.3125 C 1.398438 -0.195312 1.316406 -0.109375 1.203125 -0.046875 C 1.097656 0.00390625 0.976562 0.03125 0.84375 0.03125 Z M 0.84375 -0.28125 C 1.0625 -0.28125 1.171875 -0.425781 1.171875 -0.71875 C 1.171875 -0.875 1.140625 -0.988281 1.078125 -1.0625 C 1.023438 -1.132812 0.945312 -1.171875 0.84375 -1.171875 C 0.613281 -1.171875 0.5 -1.019531 0.5 -0.71875 C 0.5 -0.425781 0.613281 -0.28125 0.84375 -0.28125 Z M 0.84375 -0.28125 "/></g></g><g transform="translate(35.321477, 28.263047)"><g><path d="M 0.65625 0.03125 C 0.5 0.03125 0.378906 -0.0078125 0.296875 -0.09375 C 0.222656 -0.1875 0.1875 -0.316406 0.1875 -0.484375 L 0.1875 -1.453125 L 0.546875 -1.453125 L 0.546875 -0.53125 C 0.546875 -0.445312 0.5625 -0.382812 0.59375 -0.34375 C 0.632812 -0.300781 0.695312 -0.28125 0.78125 -0.28125 C 0.882812 -0.28125 0.960938 -0.3125 1.015625 -0.375 C 1.078125 -0.445312 1.109375 -0.550781 1.109375 -0.6875 L 1.109375 -1.453125 L 1.46875 -1.453125 L 1.46875 0 L 1.109375 0 L 1.109375 -0.21875 L 1.09375 -0.21875 C 1.039062 -0.132812 0.976562 -0.0703125 0.90625 -0.03125 C 0.84375 0.0078125 0.757812 0.03125 0.65625 0.03125 Z M 0.65625 0.03125 "/></g></g><g transform="translate(36.993305, 28.263047)"><g><path d="M 0.203125 0 L 0.203125 -1.453125 L 0.5625 -1.453125 L 0.5625 -1.234375 L 0.59375 -1.234375 C 0.625 -1.304688 0.664062 -1.359375 0.71875 -1.390625 C 0.78125 -1.429688 0.851562 -1.453125 0.9375 -1.453125 C 1.019531 -1.453125 1.082031 -1.441406 1.125 -1.421875 L 1.0625 -1.109375 L 1.03125 -1.09375 C 1.007812 -1.101562 0.988281 -1.109375 0.96875 -1.109375 C 0.945312 -1.117188 0.921875 -1.125 0.890625 -1.125 C 0.785156 -1.125 0.707031 -1.085938 0.65625 -1.015625 C 0.601562 -0.941406 0.578125 -0.828125 0.578125 -0.671875 L 0.578125 0 Z M 0.203125 0 "/></g></g><g transform="translate(38.126637, 28.263047)"><g/></g><g transform="translate(38.759468, 28.263047)"><g><path d="M 0.25 0 L 0.25 -1.15625 L 0.046875 -1.15625 L 0.046875 -1.453125 L 0.25 -1.453125 C 0.238281 -1.515625 0.234375 -1.570312 0.234375 -1.625 C 0.234375 -1.71875 0.253906 -1.796875 0.296875 -1.859375 C 0.335938 -1.921875 0.394531 -1.96875 0.46875 -2 C 0.550781 -2.039062 0.644531 -2.0625 0.75 -2.0625 C 0.914062 -2.0625 1.035156 -2.03125 1.109375 -1.96875 L 1.03125 -1.703125 L 1 -1.703125 C 0.945312 -1.742188 0.878906 -1.765625 0.796875 -1.765625 C 0.722656 -1.765625 0.671875 -1.742188 0.640625 -1.703125 C 0.609375 -1.671875 0.59375 -1.628906 0.59375 -1.578125 C 0.59375 -1.554688 0.59375 -1.535156 0.59375 -1.515625 C 0.601562 -1.492188 0.609375 -1.472656 0.609375 -1.453125 L 1.03125 -1.453125 L 1.03125 -1.15625 L 0.609375 -1.15625 L 0.609375 0 Z M 0.25 0 "/></g></g><g transform="translate(39.802395, 28.263047)"><g><path d="M 0.5625 0.03125 C 0.46875 0.03125 0.382812 0.015625 0.3125 -0.015625 C 0.25 -0.0546875 0.195312 -0.109375 0.15625 -0.171875 C 0.125 -0.234375 0.109375 -0.3125 0.109375 -0.40625 C 0.109375 -0.5 0.125 -0.570312 0.15625 -0.625 C 0.195312 -0.6875 0.253906 -0.734375 0.328125 -0.765625 C 0.410156 -0.804688 0.515625 -0.835938 0.640625 -0.859375 C 0.722656 -0.867188 0.785156 -0.878906 0.828125 -0.890625 C 0.878906 -0.910156 0.910156 -0.929688 0.921875 -0.953125 C 0.941406 -0.972656 0.953125 -1.003906 0.953125 -1.046875 C 0.953125 -1.085938 0.9375 -1.117188 0.90625 -1.140625 C 0.875 -1.171875 0.816406 -1.1875 0.734375 -1.1875 C 0.660156 -1.1875 0.585938 -1.164062 0.515625 -1.125 C 0.441406 -1.09375 0.378906 -1.046875 0.328125 -0.984375 L 0.296875 -0.984375 L 0.140625 -1.21875 C 0.210938 -1.300781 0.300781 -1.363281 0.40625 -1.40625 C 0.519531 -1.445312 0.640625 -1.46875 0.765625 -1.46875 C 0.953125 -1.46875 1.085938 -1.425781 1.171875 -1.34375 C 1.253906 -1.269531 1.296875 -1.15625 1.296875 -1 L 1.296875 -0.375 C 1.296875 -0.3125 1.328125 -0.28125 1.390625 -0.28125 C 1.410156 -0.28125 1.429688 -0.285156 1.453125 -0.296875 L 1.46875 -0.28125 L 1.5 -0.03125 C 1.476562 -0.0195312 1.445312 -0.0078125 1.40625 0 C 1.375 0.0078125 1.335938 0.015625 1.296875 0.015625 C 1.210938 0.015625 1.144531 0 1.09375 -0.03125 C 1.039062 -0.0703125 1.003906 -0.128906 0.984375 -0.203125 L 0.953125 -0.203125 C 0.890625 -0.046875 0.757812 0.03125 0.5625 0.03125 Z M 0.6875 -0.25 C 0.769531 -0.25 0.832031 -0.273438 0.875 -0.328125 C 0.925781 -0.378906 0.953125 -0.457031 0.953125 -0.5625 L 0.953125 -0.71875 L 0.9375 -0.71875 C 0.914062 -0.695312 0.882812 -0.679688 0.84375 -0.671875 C 0.8125 -0.660156 0.757812 -0.648438 0.6875 -0.640625 C 0.613281 -0.628906 0.554688 -0.601562 0.515625 -0.5625 C 0.484375 -0.53125 0.46875 -0.488281 0.46875 -0.4375 C 0.46875 -0.375 0.484375 -0.328125 0.515625 -0.296875 C 0.554688 -0.265625 0.613281 -0.25 0.6875 -0.25 Z M 0.6875 -0.25 "/></g></g><g transform="translate(41.326169, 28.263047)"><g><path d="M 0.84375 0.03125 C 0.707031 0.03125 0.582031 0.00390625 0.46875 -0.046875 C 0.363281 -0.109375 0.28125 -0.195312 0.21875 -0.3125 C 0.15625 -0.425781 0.125 -0.5625 0.125 -0.71875 C 0.125 -0.882812 0.15625 -1.019531 0.21875 -1.125 C 0.28125 -1.238281 0.363281 -1.320312 0.46875 -1.375 C 0.570312 -1.4375 0.695312 -1.46875 0.84375 -1.46875 C 1.144531 -1.46875 1.335938 -1.359375 1.421875 -1.140625 L 1.171875 -0.96875 L 1.140625 -0.96875 C 1.117188 -1.03125 1.082031 -1.078125 1.03125 -1.109375 C 0.976562 -1.148438 0.914062 -1.171875 0.84375 -1.171875 C 0.738281 -1.171875 0.65625 -1.132812 0.59375 -1.0625 C 0.53125 -0.988281 0.5 -0.875 0.5 -0.71875 C 0.5 -0.570312 0.53125 -0.460938 0.59375 -0.390625 C 0.65625 -0.316406 0.738281 -0.28125 0.84375 -0.28125 C 0.925781 -0.28125 0.992188 -0.300781 1.046875 -0.34375 C 1.097656 -0.382812 1.132812 -0.445312 1.15625 -0.53125 L 1.1875 -0.53125 L 1.453125 -0.390625 C 1.410156 -0.265625 1.335938 -0.160156 1.234375 -0.078125 C 1.140625 -0.00390625 1.007812 0.03125 0.84375 0.03125 Z M 0.84375 0.03125 "/></g></g><g transform="translate(42.815878, 28.263047)"><g><path d="M 1 -0.34375 L 1.09375 -0.078125 C 1.050781 -0.046875 1 -0.0195312 0.9375 0 C 0.882812 0.0195312 0.820312 0.03125 0.75 0.03125 C 0.59375 0.03125 0.472656 -0.0078125 0.390625 -0.09375 C 0.304688 -0.1875 0.265625 -0.3125 0.265625 -0.46875 L 0.265625 -1.15625 L 0.046875 -1.15625 L 0.046875 -1.453125 L 0.265625 -1.453125 L 0.265625 -1.734375 L 0.625 -1.796875 L 0.625 -1.453125 L 1.03125 -1.453125 L 1.03125 -1.15625 L 0.625 -1.15625 L 0.625 -0.5 C 0.625 -0.425781 0.640625 -0.375 0.671875 -0.34375 C 0.703125 -0.3125 0.742188 -0.296875 0.796875 -0.296875 C 0.867188 -0.296875 0.925781 -0.3125 0.96875 -0.34375 Z M 1 -0.34375 "/></g></g><g transform="translate(43.938728, 28.263047)"><g><path d="M 0.84375 0.03125 C 0.695312 0.03125 0.570312 0.00390625 0.46875 -0.046875 C 0.363281 -0.109375 0.28125 -0.195312 0.21875 -0.3125 C 0.15625 -0.425781 0.125 -0.5625 0.125 -0.71875 C 0.125 -0.882812 0.15625 -1.019531 0.21875 -1.125 C 0.28125 -1.238281 0.363281 -1.320312 0.46875 -1.375 C 0.570312 -1.4375 0.695312 -1.46875 0.84375 -1.46875 C 0.976562 -1.46875 1.097656 -1.4375 1.203125 -1.375 C 1.316406 -1.320312 1.398438 -1.238281 1.453125 -1.125 C 1.515625 -1.019531 1.546875 -0.882812 1.546875 -0.71875 C 1.546875 -0.5625 1.515625 -0.425781 1.453125 -0.3125 C 1.398438 -0.195312 1.316406 -0.109375 1.203125 -0.046875 C 1.097656 0.00390625 0.976562 0.03125 0.84375 0.03125 Z M 0.84375 -0.28125 C 1.0625 -0.28125 1.171875 -0.425781 1.171875 -0.71875 C 1.171875 -0.875 1.140625 -0.988281 1.078125 -1.0625 C 1.023438 -1.132812 0.945312 -1.171875 0.84375 -1.171875 C 0.613281 -1.171875 0.5 -1.019531 0.5 -0.71875 C 0.5 -0.425781 0.613281 -0.28125 0.84375 -0.28125 Z M 0.84375 -0.28125 "/></g></g><g transform="translate(45.618417, 28.263047)"><g><path d="M 0.203125 0 L 0.203125 -1.453125 L 0.5625 -1.453125 L 0.5625 -1.234375 L 0.59375 -1.234375 C 0.625 -1.304688 0.664062 -1.359375 0.71875 -1.390625 C 0.78125 -1.429688 0.851562 -1.453125 0.9375 -1.453125 C 1.019531 -1.453125 1.082031 -1.441406 1.125 -1.421875 L 1.0625 -1.109375 L 1.03125 -1.09375 C 1.007812 -1.101562 0.988281 -1.109375 0.96875 -1.109375 C 0.945312 -1.117188 0.921875 -1.125 0.890625 -1.125 C 0.785156 -1.125 0.707031 -1.085938 0.65625 -1.015625 C 0.601562 -0.941406 0.578125 -0.828125 0.578125 -0.671875 L 0.578125 0 Z M 0.203125 0 "/></g></g><g transform="translate(46.751749, 28.263047)"><g><path d="M 0.3125 0.609375 C 0.257812 0.609375 0.207031 0.601562 0.15625 0.59375 C 0.101562 0.582031 0.0625 0.570312 0.03125 0.5625 L 0.09375 0.265625 L 0.109375 0.265625 C 0.128906 0.273438 0.15625 0.28125 0.1875 0.28125 C 0.21875 0.289062 0.253906 0.296875 0.296875 0.296875 C 0.347656 0.296875 0.394531 0.285156 0.4375 0.265625 C 0.476562 0.253906 0.507812 0.226562 0.53125 0.1875 C 0.5625 0.15625 0.585938 0.109375 0.609375 0.046875 L 0.03125 -1.453125 L 0.40625 -1.453125 L 0.765625 -0.4375 L 0.796875 -0.4375 L 1.15625 -1.453125 L 1.53125 -1.453125 L 0.9375 0.09375 C 0.894531 0.21875 0.84375 0.316406 0.78125 0.390625 C 0.726562 0.460938 0.664062 0.515625 0.59375 0.546875 C 0.519531 0.585938 0.425781 0.609375 0.3125 0.609375 Z M 0.3125 0.609375 "/></g></g><g transform="translate(48.303037, 28.263047)"><g/></g><g transform="translate(48.935869, 28.263047)"><g><path d="M 0.25 0 L 0.25 -1.15625 L 0.046875 -1.15625 L 0.046875 -1.453125 L 0.25 -1.453125 C 0.238281 -1.515625 0.234375 -1.570312 0.234375 -1.625 C 0.234375 -1.71875 0.253906 -1.796875 0.296875 -1.859375 C 0.335938 -1.921875 0.394531 -1.96875 0.46875 -2 C 0.550781 -2.039062 0.644531 -2.0625 0.75 -2.0625 C 0.914062 -2.0625 1.035156 -2.03125 1.109375 -1.96875 L 1.03125 -1.703125 L 1 -1.703125 C 0.945312 -1.742188 0.878906 -1.765625 0.796875 -1.765625 C 0.722656 -1.765625 0.671875 -1.742188 0.640625 -1.703125 C 0.609375 -1.671875 0.59375 -1.628906 0.59375 -1.578125 C 0.59375 -1.554688 0.59375 -1.535156 0.59375 -1.515625 C 0.601562 -1.492188 0.609375 -1.472656 0.609375 -1.453125 L 1.03125 -1.453125 L 1.03125 -1.15625 L 0.609375 -1.15625 L 0.609375 0 Z M 0.25 0 "/></g></g><g transform="translate(49.978796, 28.263047)"><g><path d="M 0.84375 0.03125 C 0.695312 0.03125 0.570312 0.00390625 0.46875 -0.046875 C 0.363281 -0.109375 0.28125 -0.195312 0.21875 -0.3125 C 0.15625 -0.425781 0.125 -0.5625 0.125 -0.71875 C 0.125 -0.882812 0.15625 -1.019531 0.21875 -1.125 C 0.28125 -1.238281 0.363281 -1.320312 0.46875 -1.375 C 0.570312 -1.4375 0.695312 -1.46875 0.84375 -1.46875 C 0.976562 -1.46875 1.097656 -1.4375 1.203125 -1.375 C 1.316406 -1.320312 1.398438 -1.238281 1.453125 -1.125 C 1.515625 -1.019531 1.546875 -0.882812 1.546875 -0.71875 C 1.546875 -0.5625 1.515625 -0.425781 1.453125 -0.3125 C 1.398438 -0.195312 1.316406 -0.109375 1.203125 -0.046875 C 1.097656 0.00390625 0.976562 0.03125 0.84375 0.03125 Z M 0.84375 -0.28125 C 1.0625 -0.28125 1.171875 -0.425781 1.171875 -0.71875 C 1.171875 -0.875 1.140625 -0.988281 1.078125 -1.0625 C 1.023438 -1.132812 0.945312 -1.171875 0.84375 -1.171875 C 0.613281 -1.171875 0.5 -1.019531 0.5 -0.71875 C 0.5 -0.425781 0.613281 -0.28125 0.84375 -0.28125 Z M 0.84375 -0.28125 "/></g></g><g transform="translate(51.658485, 28.263047)"><g><path d="M 0.203125 0 L 0.203125 -1.453125 L 0.5625 -1.453125 L 0.5625 -1.234375 L 0.59375 -1.234375 C 0.625 -1.304688 0.664062 -1.359375 0.71875 -1.390625 C 0.78125 -1.429688 0.851562 -1.453125 0.9375 -1.453125 C 1.019531 -1.453125 1.082031 -1.441406 1.125 -1.421875 L 1.0625 -1.109375 L 1.03125 -1.09375 C 1.007812 -1.101562 0.988281 -1.109375 0.96875 -1.109375 C 0.945312 -1.117188 0.921875 -1.125 0.890625 -1.125 C 0.785156 -1.125 0.707031 -1.085938 0.65625 -1.015625 C 0.601562 -0.941406 0.578125 -0.828125 0.578125 -0.671875 L 0.578125 0 Z M 0.203125 0 "/></g></g><g transform="translate(52.791816, 28.263047)"><g/></g><g transform="translate(53.424648, 28.263047)"><g><path d="M 0.84375 0.03125 C 0.707031 0.03125 0.582031 0.00390625 0.46875 -0.046875 C 0.363281 -0.109375 0.28125 -0.195312 0.21875 -0.3125 C 0.15625 -0.425781 0.125 -0.5625 0.125 -0.71875 C 0.125 -0.882812 0.15625 -1.019531 0.21875 -1.125 C 0.28125 -1.238281 0.363281 -1.320312 0.46875 -1.375 C 0.570312 -1.4375 0.695312 -1.46875 0.84375 -1.46875 C 1.144531 -1.46875 1.335938 -1.359375 1.421875 -1.140625 L 1.171875 -0.96875 L 1.140625 -0.96875 C 1.117188 -1.03125 1.082031 -1.078125 1.03125 -1.109375 C 0.976562 -1.148438 0.914062 -1.171875 0.84375 -1.171875 C 0.738281 -1.171875 0.65625 -1.132812 0.59375 -1.0625 C 0.53125 -0.988281 0.5 -0.875 0.5 -0.71875 C 0.5 -0.570312 0.53125 -0.460938 0.59375 -0.390625 C 0.65625 -0.316406 0.738281 -0.28125 0.84375 -0.28125 C 0.925781 -0.28125 0.992188 -0.300781 1.046875 -0.34375 C 1.097656 -0.382812 1.132812 -0.445312 1.15625 -0.53125 L 1.1875 -0.53125 L 1.453125 -0.390625 C 1.410156 -0.265625 1.335938 -0.160156 1.234375 -0.078125 C 1.140625 -0.00390625 1.007812 0.03125 0.84375 0.03125 Z M 0.84375 0.03125 "/></g></g><g transform="translate(54.914356, 28.263047)"><g><path d="M 0.65625 0.03125 C 0.5 0.03125 0.378906 -0.0078125 0.296875 -0.09375 C 0.222656 -0.1875 0.1875 -0.316406 0.1875 -0.484375 L 0.1875 -1.453125 L 0.546875 -1.453125 L 0.546875 -0.53125 C 0.546875 -0.445312 0.5625 -0.382812 0.59375 -0.34375 C 0.632812 -0.300781 0.695312 -0.28125 0.78125 -0.28125 C 0.882812 -0.28125 0.960938 -0.3125 1.015625 -0.375 C 1.078125 -0.445312 1.109375 -0.550781 1.109375 -0.6875 L 1.109375 -1.453125 L 1.46875 -1.453125 L 1.46875 0 L 1.109375 0 L 1.109375 -0.21875 L 1.09375 -0.21875 C 1.039062 -0.132812 0.976562 -0.0703125 0.90625 -0.03125 C 0.84375 0.0078125 0.757812 0.03125 0.65625 0.03125 Z M 0.65625 0.03125 "/></g></g><g transform="translate(56.586184, 28.263047)"><g><path d="M 0.671875 0.03125 C 0.578125 0.03125 0.488281 0.0195312 0.40625 0 C 0.320312 -0.03125 0.25 -0.0625 0.1875 -0.09375 C 0.132812 -0.132812 0.09375 -0.1875 0.0625 -0.25 L 0.265625 -0.453125 L 0.296875 -0.453125 C 0.347656 -0.390625 0.40625 -0.34375 0.46875 -0.3125 C 0.53125 -0.28125 0.601562 -0.265625 0.6875 -0.265625 C 0.75 -0.265625 0.796875 -0.273438 0.828125 -0.296875 C 0.867188 -0.328125 0.890625 -0.363281 0.890625 -0.40625 C 0.890625 -0.445312 0.875 -0.476562 0.84375 -0.5 C 0.820312 -0.53125 0.785156 -0.550781 0.734375 -0.5625 L 0.53125 -0.609375 C 0.394531 -0.640625 0.289062 -0.691406 0.21875 -0.765625 C 0.15625 -0.835938 0.125 -0.925781 0.125 -1.03125 C 0.125 -1.125 0.144531 -1.203125 0.1875 -1.265625 C 0.238281 -1.335938 0.304688 -1.390625 0.390625 -1.421875 C 0.472656 -1.453125 0.570312 -1.46875 0.6875 -1.46875 C 0.8125 -1.46875 0.914062 -1.445312 1 -1.40625 C 1.082031 -1.375 1.148438 -1.328125 1.203125 -1.265625 L 1.015625 -1.0625 L 0.984375 -1.0625 C 0.941406 -1.101562 0.894531 -1.132812 0.84375 -1.15625 C 0.789062 -1.175781 0.738281 -1.1875 0.6875 -1.1875 C 0.539062 -1.1875 0.46875 -1.144531 0.46875 -1.0625 C 0.46875 -1.019531 0.476562 -0.984375 0.5 -0.953125 C 0.53125 -0.929688 0.578125 -0.914062 0.640625 -0.90625 L 0.828125 -0.859375 C 0.972656 -0.828125 1.078125 -0.773438 1.140625 -0.703125 C 1.210938 -0.640625 1.25 -0.550781 1.25 -0.4375 C 1.25 -0.34375 1.222656 -0.257812 1.171875 -0.1875 C 1.128906 -0.125 1.066406 -0.0703125 0.984375 -0.03125 C 0.898438 0.0078125 0.796875 0.03125 0.671875 0.03125 Z M 0.671875 0.03125 "/></g></g><g transform="translate(57.918668, 28.263047)"><g><path d="M 1 -0.34375 L 1.09375 -0.078125 C 1.050781 -0.046875 1 -0.0195312 0.9375 0 C 0.882812 0.0195312 0.820312 0.03125 0.75 0.03125 C 0.59375 0.03125 0.472656 -0.0078125 0.390625 -0.09375 C 0.304688 -0.1875 0.265625 -0.3125 0.265625 -0.46875 L 0.265625 -1.15625 L 0.046875 -1.15625 L 0.046875 -1.453125 L 0.265625 -1.453125 L 0.265625 -1.734375 L 0.625 -1.796875 L 0.625 -1.453125 L 1.03125 -1.453125 L 1.03125 -1.15625 L 0.625 -1.15625 L 0.625 -0.5 C 0.625 -0.425781 0.640625 -0.375 0.671875 -0.34375 C 0.703125 -0.3125 0.742188 -0.296875 0.796875 -0.296875 C 0.867188 -0.296875 0.925781 -0.3125 0.96875 -0.34375 Z M 1 -0.34375 "/></g></g><g transform="translate(59.041518, 28.263047)"><g><path d="M 0.84375 0.03125 C 0.695312 0.03125 0.570312 0.00390625 0.46875 -0.046875 C 0.363281 -0.109375 0.28125 -0.195312 0.21875 -0.3125 C 0.15625 -0.425781 0.125 -0.5625 0.125 -0.71875 C 0.125 -0.882812 0.15625 -1.019531 0.21875 -1.125 C 0.28125 -1.238281 0.363281 -1.320312 0.46875 -1.375 C 0.570312 -1.4375 0.695312 -1.46875 0.84375 -1.46875 C 0.976562 -1.46875 1.097656 -1.4375 1.203125 -1.375 C 1.316406 -1.320312 1.398438 -1.238281 1.453125 -1.125 C 1.515625 -1.019531 1.546875 -0.882812 1.546875 -0.71875 C 1.546875 -0.5625 1.515625 -0.425781 1.453125 -0.3125 C 1.398438 -0.195312 1.316406 -0.109375 1.203125 -0.046875 C 1.097656 0.00390625 0.976562 0.03125 0.84375 0.03125 Z M 0.84375 -0.28125 C 1.0625 -0.28125 1.171875 -0.425781 1.171875 -0.71875 C 1.171875 -0.875 1.140625 -0.988281 1.078125 -1.0625 C 1.023438 -1.132812 0.945312 -1.171875 0.84375 -1.171875 C 0.613281 -1.171875 0.5 -1.019531 0.5 -0.71875 C 0.5 -0.425781 0.613281 -0.28125 0.84375 -0.28125 Z M 0.84375 -0.28125 "/></g></g><g transform="translate(60.721207, 28.263047)"><g><path d="M 0.203125 0 L 0.203125 -1.453125 L 0.5625 -1.453125 L 0.5625 -1.25 L 0.578125 -1.25 C 0.628906 -1.320312 0.6875 -1.375 0.75 -1.40625 C 0.8125 -1.445312 0.894531 -1.46875 1 -1.46875 C 1.101562 -1.46875 1.1875 -1.445312 1.25 -1.40625 C 1.320312 -1.363281 1.375 -1.300781 1.40625 -1.21875 L 1.4375 -1.21875 C 1.476562 -1.300781 1.53125 -1.363281 1.59375 -1.40625 C 1.664062 -1.445312 1.757812 -1.46875 1.875 -1.46875 C 2.164062 -1.46875 2.3125 -1.300781 2.3125 -0.96875 L 2.3125 0 L 1.953125 0 L 1.953125 -0.921875 C 1.953125 -1.015625 1.9375 -1.078125 1.90625 -1.109375 C 1.875 -1.148438 1.820312 -1.171875 1.75 -1.171875 C 1.539062 -1.171875 1.4375 -1.035156 1.4375 -0.765625 L 1.4375 0 L 1.078125 0 L 1.078125 -0.921875 C 1.078125 -1.015625 1.0625 -1.078125 1.03125 -1.109375 C 1 -1.148438 0.945312 -1.171875 0.875 -1.171875 C 0.78125 -1.171875 0.707031 -1.140625 0.65625 -1.078125 C 0.601562 -1.015625 0.578125 -0.914062 0.578125 -0.78125 L 0.578125 0 Z M 0.203125 0 "/></g></g><g transform="translate(63.221087, 28.263047)"><g><path d="M 0.390625 -1.625 C 0.328125 -1.625 0.273438 -1.640625 0.234375 -1.671875 C 0.191406 -1.710938 0.171875 -1.765625 0.171875 -1.828125 C 0.171875 -1.890625 0.191406 -1.941406 0.234375 -1.984375 C 0.273438 -2.023438 0.328125 -2.046875 0.390625 -2.046875 C 0.429688 -2.046875 0.46875 -2.035156 0.5 -2.015625 C 0.539062 -1.992188 0.566406 -1.96875 0.578125 -1.9375 C 0.597656 -1.90625 0.609375 -1.867188 0.609375 -1.828125 C 0.609375 -1.785156 0.597656 -1.75 0.578125 -1.71875 C 0.566406 -1.6875 0.539062 -1.660156 0.5 -1.640625 C 0.46875 -1.628906 0.429688 -1.625 0.390625 -1.625 Z M 0.203125 0 L 0.203125 -1.453125 L 0.578125 -1.453125 L 0.578125 0 Z M 0.203125 0 "/></g></g><g transform="translate(63.999352, 28.263047)"><g><path d="M 1.21875 0 L 0.078125 0 L 0.078125 -0.296875 L 0.78125 -1.125 L 0.765625 -1.15625 L 0.109375 -1.15625 L 0.109375 -1.453125 L 1.203125 -1.453125 L 1.203125 -1.140625 L 0.5 -0.3125 L 0.515625 -0.28125 L 1.21875 -0.28125 Z M 1.21875 0 "/></g></g><g transform="translate(65.288599, 28.263047)"><g><path d="M 1.4375 -0.640625 L 0.5 -0.640625 C 0.507812 -0.515625 0.546875 -0.421875 0.609375 -0.359375 C 0.671875 -0.304688 0.753906 -0.28125 0.859375 -0.28125 C 0.941406 -0.28125 1.007812 -0.296875 1.0625 -0.328125 C 1.113281 -0.359375 1.15625 -0.40625 1.1875 -0.46875 L 1.21875 -0.46875 L 1.453125 -0.3125 C 1.410156 -0.207031 1.335938 -0.125 1.234375 -0.0625 C 1.140625 0 1.015625 0.03125 0.859375 0.03125 C 0.710938 0.03125 0.582031 0.00390625 0.46875 -0.046875 C 0.363281 -0.109375 0.28125 -0.195312 0.21875 -0.3125 C 0.15625 -0.425781 0.125 -0.5625 0.125 -0.71875 C 0.125 -0.882812 0.15625 -1.023438 0.21875 -1.140625 C 0.28125 -1.253906 0.363281 -1.335938 0.46875 -1.390625 C 0.582031 -1.441406 0.703125 -1.46875 0.828125 -1.46875 C 1.035156 -1.46875 1.191406 -1.414062 1.296875 -1.3125 C 1.410156 -1.207031 1.46875 -1.046875 1.46875 -0.828125 C 1.46875 -0.753906 1.460938 -0.695312 1.453125 -0.65625 Z M 1.125 -0.875 C 1.113281 -0.988281 1.082031 -1.066406 1.03125 -1.109375 C 0.988281 -1.160156 0.921875 -1.1875 0.828125 -1.1875 C 0.648438 -1.1875 0.546875 -1.082031 0.515625 -0.875 Z M 1.125 -0.875 "/></g></g><g transform="translate(66.85954, 28.263047)"><g><path d="M 0.71875 0.03125 C 0.601562 0.03125 0.5 0.00390625 0.40625 -0.046875 C 0.320312 -0.109375 0.253906 -0.191406 0.203125 -0.296875 C 0.148438 -0.410156 0.125 -0.550781 0.125 -0.71875 C 0.125 -0.882812 0.148438 -1.023438 0.203125 -1.140625 C 0.253906 -1.253906 0.328125 -1.335938 0.421875 -1.390625 C 0.515625 -1.441406 0.617188 -1.46875 0.734375 -1.46875 C 0.828125 -1.46875 0.90625 -1.453125 0.96875 -1.421875 C 1.03125 -1.390625 1.085938 -1.34375 1.140625 -1.28125 L 1.15625 -1.296875 L 1.15625 -2.03125 L 1.53125 -2.03125 L 1.53125 0 L 1.15625 0 L 1.15625 -0.1875 L 1.140625 -0.1875 C 1.097656 -0.125 1.039062 -0.0703125 0.96875 -0.03125 C 0.894531 0.0078125 0.8125 0.03125 0.71875 0.03125 Z M 0.828125 -0.28125 C 0.929688 -0.28125 1.015625 -0.316406 1.078125 -0.390625 C 1.140625 -0.460938 1.171875 -0.570312 1.171875 -0.71875 C 1.171875 -0.875 1.140625 -0.988281 1.078125 -1.0625 C 1.015625 -1.132812 0.929688 -1.171875 0.828125 -1.171875 C 0.722656 -1.171875 0.640625 -1.132812 0.578125 -1.0625 C 0.523438 -0.988281 0.5 -0.875 0.5 -0.71875 C 0.5 -0.570312 0.523438 -0.460938 0.578125 -0.390625 C 0.640625 -0.316406 0.722656 -0.28125 0.828125 -0.28125 Z M 0.828125 -0.28125 "/></g></g><g transform="translate(68.591638, 28.263047)"><g/></g><g transform="translate(69.224469, 28.263047)"><g><path d="M 0.5625 0.03125 C 0.46875 0.03125 0.382812 0.015625 0.3125 -0.015625 C 0.25 -0.0546875 0.195312 -0.109375 0.15625 -0.171875 C 0.125 -0.234375 0.109375 -0.3125 0.109375 -0.40625 C 0.109375 -0.5 0.125 -0.570312 0.15625 -0.625 C 0.195312 -0.6875 0.253906 -0.734375 0.328125 -0.765625 C 0.410156 -0.804688 0.515625 -0.835938 0.640625 -0.859375 C 0.722656 -0.867188 0.785156 -0.878906 0.828125 -0.890625 C 0.878906 -0.910156 0.910156 -0.929688 0.921875 -0.953125 C 0.941406 -0.972656 0.953125 -1.003906 0.953125 -1.046875 C 0.953125 -1.085938 0.9375 -1.117188 0.90625 -1.140625 C 0.875 -1.171875 0.816406 -1.1875 0.734375 -1.1875 C 0.660156 -1.1875 0.585938 -1.164062 0.515625 -1.125 C 0.441406 -1.09375 0.378906 -1.046875 0.328125 -0.984375 L 0.296875 -0.984375 L 0.140625 -1.21875 C 0.210938 -1.300781 0.300781 -1.363281 0.40625 -1.40625 C 0.519531 -1.445312 0.640625 -1.46875 0.765625 -1.46875 C 0.953125 -1.46875 1.085938 -1.425781 1.171875 -1.34375 C 1.253906 -1.269531 1.296875 -1.15625 1.296875 -1 L 1.296875 -0.375 C 1.296875 -0.3125 1.328125 -0.28125 1.390625 -0.28125 C 1.410156 -0.28125 1.429688 -0.285156 1.453125 -0.296875 L 1.46875 -0.28125 L 1.5 -0.03125 C 1.476562 -0.0195312 1.445312 -0.0078125 1.40625 0 C 1.375 0.0078125 1.335938 0.015625 1.296875 0.015625 C 1.210938 0.015625 1.144531 0 1.09375 -0.03125 C 1.039062 -0.0703125 1.003906 -0.128906 0.984375 -0.203125 L 0.953125 -0.203125 C 0.890625 -0.046875 0.757812 0.03125 0.5625 0.03125 Z M 0.6875 -0.25 C 0.769531 -0.25 0.832031 -0.273438 0.875 -0.328125 C 0.925781 -0.378906 0.953125 -0.457031 0.953125 -0.5625 L 0.953125 -0.71875 L 0.9375 -0.71875 C 0.914062 -0.695312 0.882812 -0.679688 0.84375 -0.671875 C 0.8125 -0.660156 0.757812 -0.648438 0.6875 -0.640625 C 0.613281 -0.628906 0.554688 -0.601562 0.515625 -0.5625 C 0.484375 -0.53125 0.46875 -0.488281 0.46875 -0.4375 C 0.46875 -0.375 0.484375 -0.328125 0.515625 -0.296875 C 0.554688 -0.265625 0.613281 -0.25 0.6875 -0.25 Z M 0.6875 -0.25 "/></g></g><g transform="translate(70.748243, 28.263047)"><g><path d="M 0.203125 0.59375 L 0.203125 -1.453125 L 0.578125 -1.453125 L 0.578125 -1.265625 L 0.59375 -1.25 C 0.632812 -1.320312 0.691406 -1.375 0.765625 -1.40625 C 0.835938 -1.445312 0.925781 -1.46875 1.03125 -1.46875 C 1.144531 -1.46875 1.242188 -1.441406 1.328125 -1.390625 C 1.410156 -1.335938 1.476562 -1.253906 1.53125 -1.140625 C 1.582031 -1.023438 1.609375 -0.882812 1.609375 -0.71875 C 1.609375 -0.550781 1.582031 -0.410156 1.53125 -0.296875 C 1.476562 -0.191406 1.40625 -0.109375 1.3125 -0.046875 C 1.21875 0.00390625 1.113281 0.03125 1 0.03125 C 0.90625 0.03125 0.828125 0.015625 0.765625 -0.015625 C 0.703125 -0.046875 0.644531 -0.09375 0.59375 -0.15625 L 0.578125 -0.15625 L 0.578125 0.59375 Z M 0.90625 -0.28125 C 1.007812 -0.28125 1.085938 -0.316406 1.140625 -0.390625 C 1.203125 -0.460938 1.234375 -0.570312 1.234375 -0.71875 C 1.234375 -0.875 1.203125 -0.988281 1.140625 -1.0625 C 1.085938 -1.132812 1.007812 -1.171875 0.90625 -1.171875 C 0.800781 -1.171875 0.71875 -1.132812 0.65625 -1.0625 C 0.59375 -0.988281 0.5625 -0.875 0.5625 -0.71875 C 0.5625 -0.570312 0.59375 -0.460938 0.65625 -0.390625 C 0.71875 -0.316406 0.800781 -0.28125 0.90625 -0.28125 Z M 0.90625 -0.28125 "/></g></g><g transform="translate(72.479031, 28.263047)"><g><path d="M 0.203125 0.59375 L 0.203125 -1.453125 L 0.578125 -1.453125 L 0.578125 -1.265625 L 0.59375 -1.25 C 0.632812 -1.320312 0.691406 -1.375 0.765625 -1.40625 C 0.835938 -1.445312 0.925781 -1.46875 1.03125 -1.46875 C 1.144531 -1.46875 1.242188 -1.441406 1.328125 -1.390625 C 1.410156 -1.335938 1.476562 -1.253906 1.53125 -1.140625 C 1.582031 -1.023438 1.609375 -0.882812 1.609375 -0.71875 C 1.609375 -0.550781 1.582031 -0.410156 1.53125 -0.296875 C 1.476562 -0.191406 1.40625 -0.109375 1.3125 -0.046875 C 1.21875 0.00390625 1.113281 0.03125 1 0.03125 C 0.90625 0.03125 0.828125 0.015625 0.765625 -0.015625 C 0.703125 -0.046875 0.644531 -0.09375 0.59375 -0.15625 L 0.578125 -0.15625 L 0.578125 0.59375 Z M 0.90625 -0.28125 C 1.007812 -0.28125 1.085938 -0.316406 1.140625 -0.390625 C 1.203125 -0.460938 1.234375 -0.570312 1.234375 -0.71875 C 1.234375 -0.875 1.203125 -0.988281 1.140625 -1.0625 C 1.085938 -1.132812 1.007812 -1.171875 0.90625 -1.171875 C 0.800781 -1.171875 0.71875 -1.132812 0.65625 -1.0625 C 0.59375 -0.988281 0.5625 -0.875 0.5625 -0.71875 C 0.5625 -0.570312 0.59375 -0.460938 0.65625 -0.390625 C 0.71875 -0.316406 0.800781 -0.28125 0.90625 -0.28125 Z M 0.90625 -0.28125 "/></g></g><g transform="translate(74.209818, 28.263047)"><g><path d="M 0.5625 0.03125 C 0.46875 0.03125 0.382812 0.015625 0.3125 -0.015625 C 0.25 -0.0546875 0.195312 -0.109375 0.15625 -0.171875 C 0.125 -0.234375 0.109375 -0.3125 0.109375 -0.40625 C 0.109375 -0.5 0.125 -0.570312 0.15625 -0.625 C 0.195312 -0.6875 0.253906 -0.734375 0.328125 -0.765625 C 0.410156 -0.804688 0.515625 -0.835938 0.640625 -0.859375 C 0.722656 -0.867188 0.785156 -0.878906 0.828125 -0.890625 C 0.878906 -0.910156 0.910156 -0.929688 0.921875 -0.953125 C 0.941406 -0.972656 0.953125 -1.003906 0.953125 -1.046875 C 0.953125 -1.085938 0.9375 -1.117188 0.90625 -1.140625 C 0.875 -1.171875 0.816406 -1.1875 0.734375 -1.1875 C 0.660156 -1.1875 0.585938 -1.164062 0.515625 -1.125 C 0.441406 -1.09375 0.378906 -1.046875 0.328125 -0.984375 L 0.296875 -0.984375 L 0.140625 -1.21875 C 0.210938 -1.300781 0.300781 -1.363281 0.40625 -1.40625 C 0.519531 -1.445312 0.640625 -1.46875 0.765625 -1.46875 C 0.953125 -1.46875 1.085938 -1.425781 1.171875 -1.34375 C 1.253906 -1.269531 1.296875 -1.15625 1.296875 -1 L 1.296875 -0.375 C 1.296875 -0.3125 1.328125 -0.28125 1.390625 -0.28125 C 1.410156 -0.28125 1.429688 -0.285156 1.453125 -0.296875 L 1.46875 -0.28125 L 1.5 -0.03125 C 1.476562 -0.0195312 1.445312 -0.0078125 1.40625 0 C 1.375 0.0078125 1.335938 0.015625 1.296875 0.015625 C 1.210938 0.015625 1.144531 0 1.09375 -0.03125 C 1.039062 -0.0703125 1.003906 -0.128906 0.984375 -0.203125 L 0.953125 -0.203125 C 0.890625 -0.046875 0.757812 0.03125 0.5625 0.03125 Z M 0.6875 -0.25 C 0.769531 -0.25 0.832031 -0.273438 0.875 -0.328125 C 0.925781 -0.378906 0.953125 -0.457031 0.953125 -0.5625 L 0.953125 -0.71875 L 0.9375 -0.71875 C 0.914062 -0.695312 0.882812 -0.679688 0.84375 -0.671875 C 0.8125 -0.660156 0.757812 -0.648438 0.6875 -0.640625 C 0.613281 -0.628906 0.554688 -0.601562 0.515625 -0.5625 C 0.484375 -0.53125 0.46875 -0.488281 0.46875 -0.4375 C 0.46875 -0.375 0.484375 -0.328125 0.515625 -0.296875 C 0.554688 -0.265625 0.613281 -0.25 0.6875 -0.25 Z M 0.6875 -0.25 "/></g></g><g transform="translate(75.733592, 28.263047)"><g><path d="M 0.203125 0 L 0.203125 -1.453125 L 0.5625 -1.453125 L 0.5625 -1.234375 L 0.59375 -1.234375 C 0.625 -1.304688 0.664062 -1.359375 0.71875 -1.390625 C 0.78125 -1.429688 0.851562 -1.453125 0.9375 -1.453125 C 1.019531 -1.453125 1.082031 -1.441406 1.125 -1.421875 L 1.0625 -1.109375 L 1.03125 -1.09375 C 1.007812 -1.101562 0.988281 -1.109375 0.96875 -1.109375 C 0.945312 -1.117188 0.921875 -1.125 0.890625 -1.125 C 0.785156 -1.125 0.707031 -1.085938 0.65625 -1.015625 C 0.601562 -0.941406 0.578125 -0.828125 0.578125 -0.671875 L 0.578125 0 Z M 0.203125 0 "/></g></g><g transform="translate(76.866924, 28.263047)"><g><path d="M 1.4375 -0.640625 L 0.5 -0.640625 C 0.507812 -0.515625 0.546875 -0.421875 0.609375 -0.359375 C 0.671875 -0.304688 0.753906 -0.28125 0.859375 -0.28125 C 0.941406 -0.28125 1.007812 -0.296875 1.0625 -0.328125 C 1.113281 -0.359375 1.15625 -0.40625 1.1875 -0.46875 L 1.21875 -0.46875 L 1.453125 -0.3125 C 1.410156 -0.207031 1.335938 -0.125 1.234375 -0.0625 C 1.140625 0 1.015625 0.03125 0.859375 0.03125 C 0.710938 0.03125 0.582031 0.00390625 0.46875 -0.046875 C 0.363281 -0.109375 0.28125 -0.195312 0.21875 -0.3125 C 0.15625 -0.425781 0.125 -0.5625 0.125 -0.71875 C 0.125 -0.882812 0.15625 -1.023438 0.21875 -1.140625 C 0.28125 -1.253906 0.363281 -1.335938 0.46875 -1.390625 C 0.582031 -1.441406 0.703125 -1.46875 0.828125 -1.46875 C 1.035156 -1.46875 1.191406 -1.414062 1.296875 -1.3125 C 1.410156 -1.207031 1.46875 -1.046875 1.46875 -0.828125 C 1.46875 -0.753906 1.460938 -0.695312 1.453125 -0.65625 Z M 1.125 -0.875 C 1.113281 -0.988281 1.082031 -1.066406 1.03125 -1.109375 C 0.988281 -1.160156 0.921875 -1.1875 0.828125 -1.1875 C 0.648438 -1.1875 0.546875 -1.082031 0.515625 -0.875 Z M 1.125 -0.875 "/></g></g><g transform="translate(78.437865, 28.263047)"><g><path d="M 0.59375 0.03125 C 0.46875 0.03125 0.367188 -0.00390625 0.296875 -0.078125 C 0.234375 -0.148438 0.203125 -0.257812 0.203125 -0.40625 L 0.203125 -2.03125 L 0.5625 -2.03125 L 0.5625 -0.40625 C 0.5625 -0.320312 0.597656 -0.28125 0.671875 -0.28125 C 0.691406 -0.28125 0.710938 -0.285156 0.734375 -0.296875 L 0.765625 -0.28125 L 0.796875 0 C 0.773438 0.0078125 0.742188 0.015625 0.703125 0.015625 C 0.671875 0.0234375 0.632812 0.03125 0.59375 0.03125 Z M 0.59375 0.03125 "/></g></g><g transform="translate(79.268539, 28.263047)"><g/></g><g transform="translate(79.90137, 28.263047)"><g><path d="M 0.5625 0.03125 C 0.46875 0.03125 0.382812 0.015625 0.3125 -0.015625 C 0.25 -0.0546875 0.195312 -0.109375 0.15625 -0.171875 C 0.125 -0.234375 0.109375 -0.3125 0.109375 -0.40625 C 0.109375 -0.5 0.125 -0.570312 0.15625 -0.625 C 0.195312 -0.6875 0.253906 -0.734375 0.328125 -0.765625 C 0.410156 -0.804688 0.515625 -0.835938 0.640625 -0.859375 C 0.722656 -0.867188 0.785156 -0.878906 0.828125 -0.890625 C 0.878906 -0.910156 0.910156 -0.929688 0.921875 -0.953125 C 0.941406 -0.972656 0.953125 -1.003906 0.953125 -1.046875 C 0.953125 -1.085938 0.9375 -1.117188 0.90625 -1.140625 C 0.875 -1.171875 0.816406 -1.1875 0.734375 -1.1875 C 0.660156 -1.1875 0.585938 -1.164062 0.515625 -1.125 C 0.441406 -1.09375 0.378906 -1.046875 0.328125 -0.984375 L 0.296875 -0.984375 L 0.140625 -1.21875 C 0.210938 -1.300781 0.300781 -1.363281 0.40625 -1.40625 C 0.519531 -1.445312 0.640625 -1.46875 0.765625 -1.46875 C 0.953125 -1.46875 1.085938 -1.425781 1.171875 -1.34375 C 1.253906 -1.269531 1.296875 -1.15625 1.296875 -1 L 1.296875 -0.375 C 1.296875 -0.3125 1.328125 -0.28125 1.390625 -0.28125 C 1.410156 -0.28125 1.429688 -0.285156 1.453125 -0.296875 L 1.46875 -0.28125 L 1.5 -0.03125 C 1.476562 -0.0195312 1.445312 -0.0078125 1.40625 0 C 1.375 0.0078125 1.335938 0.015625 1.296875 0.015625 C 1.210938 0.015625 1.144531 0 1.09375 -0.03125 C 1.039062 -0.0703125 1.003906 -0.128906 0.984375 -0.203125 L 0.953125 -0.203125 C 0.890625 -0.046875 0.757812 0.03125 0.5625 0.03125 Z M 0.6875 -0.25 C 0.769531 -0.25 0.832031 -0.273438 0.875 -0.328125 C 0.925781 -0.378906 0.953125 -0.457031 0.953125 -0.5625 L 0.953125 -0.71875 L 0.9375 -0.71875 C 0.914062 -0.695312 0.882812 -0.679688 0.84375 -0.671875 C 0.8125 -0.660156 0.757812 -0.648438 0.6875 -0.640625 C 0.613281 -0.628906 0.554688 -0.601562 0.515625 -0.5625 C 0.484375 -0.53125 0.46875 -0.488281 0.46875 -0.4375 C 0.46875 -0.375 0.484375 -0.328125 0.515625 -0.296875 C 0.554688 -0.265625 0.613281 -0.25 0.6875 -0.25 Z M 0.6875 -0.25 "/></g></g><g transform="translate(81.425144, 28.263047)"><g><path d="M 0.203125 0 L 0.203125 -1.453125 L 0.5625 -1.453125 L 0.5625 -1.234375 L 0.578125 -1.234375 C 0.671875 -1.390625 0.820312 -1.46875 1.03125 -1.46875 C 1.195312 -1.46875 1.316406 -1.421875 1.390625 -1.328125 C 1.472656 -1.242188 1.515625 -1.113281 1.515625 -0.9375 L 1.515625 0 L 1.140625 0 L 1.140625 -0.890625 C 1.140625 -0.992188 1.117188 -1.066406 1.078125 -1.109375 C 1.046875 -1.148438 0.988281 -1.171875 0.90625 -1.171875 C 0.800781 -1.171875 0.71875 -1.132812 0.65625 -1.0625 C 0.601562 -1 0.578125 -0.894531 0.578125 -0.75 L 0.578125 0 Z M 0.203125 0 "/></g></g><g transform="translate(83.117935, 28.263047)"><g><path d="M 0.71875 0.03125 C 0.601562 0.03125 0.5 0.00390625 0.40625 -0.046875 C 0.320312 -0.109375 0.253906 -0.191406 0.203125 -0.296875 C 0.148438 -0.410156 0.125 -0.550781 0.125 -0.71875 C 0.125 -0.882812 0.148438 -1.023438 0.203125 -1.140625 C 0.253906 -1.253906 0.328125 -1.335938 0.421875 -1.390625 C 0.515625 -1.441406 0.617188 -1.46875 0.734375 -1.46875 C 0.828125 -1.46875 0.90625 -1.453125 0.96875 -1.421875 C 1.03125 -1.390625 1.085938 -1.34375 1.140625 -1.28125 L 1.15625 -1.296875 L 1.15625 -2.03125 L 1.53125 -2.03125 L 1.53125 0 L 1.15625 0 L 1.15625 -0.1875 L 1.140625 -0.1875 C 1.097656 -0.125 1.039062 -0.0703125 0.96875 -0.03125 C 0.894531 0.0078125 0.8125 0.03125 0.71875 0.03125 Z M 0.828125 -0.28125 C 0.929688 -0.28125 1.015625 -0.316406 1.078125 -0.390625 C 1.140625 -0.460938 1.171875 -0.570312 1.171875 -0.71875 C 1.171875 -0.875 1.140625 -0.988281 1.078125 -1.0625 C 1.015625 -1.132812 0.929688 -1.171875 0.828125 -1.171875 C 0.722656 -1.171875 0.640625 -1.132812 0.578125 -1.0625 C 0.523438 -0.988281 0.5 -0.875 0.5 -0.71875 C 0.5 -0.570312 0.523438 -0.460938 0.578125 -0.390625 C 0.640625 -0.316406 0.722656 -0.28125 0.828125 -0.28125 Z M 0.828125 -0.28125 "/></g></g><g transform="translate(84.850033, 28.263047)"><g/></g><g transform="translate(85.482864, 28.263047)"><g><path d="M 0.59375 0.03125 C 0.46875 0.03125 0.367188 -0.00390625 0.296875 -0.078125 C 0.234375 -0.148438 0.203125 -0.257812 0.203125 -0.40625 L 0.203125 -2.03125 L 0.5625 -2.03125 L 0.5625 -0.40625 C 0.5625 -0.320312 0.597656 -0.28125 0.671875 -0.28125 C 0.691406 -0.28125 0.710938 -0.285156 0.734375 -0.296875 L 0.765625 -0.28125 L 0.796875 0 C 0.773438 0.0078125 0.742188 0.015625 0.703125 0.015625 C 0.671875 0.0234375 0.632812 0.03125 0.59375 0.03125 Z M 0.59375 0.03125 "/></g></g><g transform="translate(86.313537, 28.263047)"><g><path d="M 0.390625 -1.625 C 0.328125 -1.625 0.273438 -1.640625 0.234375 -1.671875 C 0.191406 -1.710938 0.171875 -1.765625 0.171875 -1.828125 C 0.171875 -1.890625 0.191406 -1.941406 0.234375 -1.984375 C 0.273438 -2.023438 0.328125 -2.046875 0.390625 -2.046875 C 0.429688 -2.046875 0.46875 -2.035156 0.5 -2.015625 C 0.539062 -1.992188 0.566406 -1.96875 0.578125 -1.9375 C 0.597656 -1.90625 0.609375 -1.867188 0.609375 -1.828125 C 0.609375 -1.785156 0.597656 -1.75 0.578125 -1.71875 C 0.566406 -1.6875 0.539062 -1.660156 0.5 -1.640625 C 0.46875 -1.628906 0.429688 -1.625 0.390625 -1.625 Z M 0.203125 0 L 0.203125 -1.453125 L 0.578125 -1.453125 L 0.578125 0 Z M 0.203125 0 "/></g></g><g transform="translate(87.091802, 28.263047)"><g><path d="M 0.25 0 L 0.25 -1.15625 L 0.046875 -1.15625 L 0.046875 -1.453125 L 0.25 -1.453125 C 0.238281 -1.515625 0.234375 -1.570312 0.234375 -1.625 C 0.234375 -1.71875 0.253906 -1.796875 0.296875 -1.859375 C 0.335938 -1.921875 0.394531 -1.96875 0.46875 -2 C 0.550781 -2.039062 0.644531 -2.0625 0.75 -2.0625 C 0.914062 -2.0625 1.035156 -2.03125 1.109375 -1.96875 L 1.03125 -1.703125 L 1 -1.703125 C 0.945312 -1.742188 0.878906 -1.765625 0.796875 -1.765625 C 0.722656 -1.765625 0.671875 -1.742188 0.640625 -1.703125 C 0.609375 -1.671875 0.59375 -1.628906 0.59375 -1.578125 C 0.59375 -1.554688 0.59375 -1.535156 0.59375 -1.515625 C 0.601562 -1.492188 0.609375 -1.472656 0.609375 -1.453125 L 1.03125 -1.453125 L 1.03125 -1.15625 L 0.609375 -1.15625 L 0.609375 0 Z M 0.25 0 "/></g></g><g transform="translate(88.134729, 28.263047)"><g><path d="M 1.4375 -0.640625 L 0.5 -0.640625 C 0.507812 -0.515625 0.546875 -0.421875 0.609375 -0.359375 C 0.671875 -0.304688 0.753906 -0.28125 0.859375 -0.28125 C 0.941406 -0.28125 1.007812 -0.296875 1.0625 -0.328125 C 1.113281 -0.359375 1.15625 -0.40625 1.1875 -0.46875 L 1.21875 -0.46875 L 1.453125 -0.3125 C 1.410156 -0.207031 1.335938 -0.125 1.234375 -0.0625 C 1.140625 0 1.015625 0.03125 0.859375 0.03125 C 0.710938 0.03125 0.582031 0.00390625 0.46875 -0.046875 C 0.363281 -0.109375 0.28125 -0.195312 0.21875 -0.3125 C 0.15625 -0.425781 0.125 -0.5625 0.125 -0.71875 C 0.125 -0.882812 0.15625 -1.023438 0.21875 -1.140625 C 0.28125 -1.253906 0.363281 -1.335938 0.46875 -1.390625 C 0.582031 -1.441406 0.703125 -1.46875 0.828125 -1.46875 C 1.035156 -1.46875 1.191406 -1.414062 1.296875 -1.3125 C 1.410156 -1.207031 1.46875 -1.046875 1.46875 -0.828125 C 1.46875 -0.753906 1.460938 -0.695312 1.453125 -0.65625 Z M 1.125 -0.875 C 1.113281 -0.988281 1.082031 -1.066406 1.03125 -1.109375 C 0.988281 -1.160156 0.921875 -1.1875 0.828125 -1.1875 C 0.648438 -1.1875 0.546875 -1.082031 0.515625 -0.875 Z M 1.125 -0.875 "/></g></g><g transform="translate(89.705671, 28.263047)"><g><path d="M 0.671875 0.03125 C 0.578125 0.03125 0.488281 0.0195312 0.40625 0 C 0.320312 -0.03125 0.25 -0.0625 0.1875 -0.09375 C 0.132812 -0.132812 0.09375 -0.1875 0.0625 -0.25 L 0.265625 -0.453125 L 0.296875 -0.453125 C 0.347656 -0.390625 0.40625 -0.34375 0.46875 -0.3125 C 0.53125 -0.28125 0.601562 -0.265625 0.6875 -0.265625 C 0.75 -0.265625 0.796875 -0.273438 0.828125 -0.296875 C 0.867188 -0.328125 0.890625 -0.363281 0.890625 -0.40625 C 0.890625 -0.445312 0.875 -0.476562 0.84375 -0.5 C 0.820312 -0.53125 0.785156 -0.550781 0.734375 -0.5625 L 0.53125 -0.609375 C 0.394531 -0.640625 0.289062 -0.691406 0.21875 -0.765625 C 0.15625 -0.835938 0.125 -0.925781 0.125 -1.03125 C 0.125 -1.125 0.144531 -1.203125 0.1875 -1.265625 C 0.238281 -1.335938 0.304688 -1.390625 0.390625 -1.421875 C 0.472656 -1.453125 0.570312 -1.46875 0.6875 -1.46875 C 0.8125 -1.46875 0.914062 -1.445312 1 -1.40625 C 1.082031 -1.375 1.148438 -1.328125 1.203125 -1.265625 L 1.015625 -1.0625 L 0.984375 -1.0625 C 0.941406 -1.101562 0.894531 -1.132812 0.84375 -1.15625 C 0.789062 -1.175781 0.738281 -1.1875 0.6875 -1.1875 C 0.539062 -1.1875 0.46875 -1.144531 0.46875 -1.0625 C 0.46875 -1.019531 0.476562 -0.984375 0.5 -0.953125 C 0.53125 -0.929688 0.578125 -0.914062 0.640625 -0.90625 L 0.828125 -0.859375 C 0.972656 -0.828125 1.078125 -0.773438 1.140625 -0.703125 C 1.210938 -0.640625 1.25 -0.550781 1.25 -0.4375 C 1.25 -0.34375 1.222656 -0.257812 1.171875 -0.1875 C 1.128906 -0.125 1.066406 -0.0703125 0.984375 -0.03125 C 0.898438 0.0078125 0.796875 0.03125 0.671875 0.03125 Z M 0.671875 0.03125 "/></g></g><g transform="translate(91.038154, 28.263047)"><g><path d="M 1 -0.34375 L 1.09375 -0.078125 C 1.050781 -0.046875 1 -0.0195312 0.9375 0 C 0.882812 0.0195312 0.820312 0.03125 0.75 0.03125 C 0.59375 0.03125 0.472656 -0.0078125 0.390625 -0.09375 C 0.304688 -0.1875 0.265625 -0.3125 0.265625 -0.46875 L 0.265625 -1.15625 L 0.046875 -1.15625 L 0.046875 -1.453125 L 0.265625 -1.453125 L 0.265625 -1.734375 L 0.625 -1.796875 L 0.625 -1.453125 L 1.03125 -1.453125 L 1.03125 -1.15625 L 0.625 -1.15625 L 0.625 -0.5 C 0.625 -0.425781 0.640625 -0.375 0.671875 -0.34375 C 0.703125 -0.3125 0.742188 -0.296875 0.796875 -0.296875 C 0.867188 -0.296875 0.925781 -0.3125 0.96875 -0.34375 Z M 1 -0.34375 "/></g></g><g transform="translate(92.161004, 28.263047)"><g><path d="M 0.3125 0.609375 C 0.257812 0.609375 0.207031 0.601562 0.15625 0.59375 C 0.101562 0.582031 0.0625 0.570312 0.03125 0.5625 L 0.09375 0.265625 L 0.109375 0.265625 C 0.128906 0.273438 0.15625 0.28125 0.1875 0.28125 C 0.21875 0.289062 0.253906 0.296875 0.296875 0.296875 C 0.347656 0.296875 0.394531 0.285156 0.4375 0.265625 C 0.476562 0.253906 0.507812 0.226562 0.53125 0.1875 C 0.5625 0.15625 0.585938 0.109375 0.609375 0.046875 L 0.03125 -1.453125 L 0.40625 -1.453125 L 0.765625 -0.4375 L 0.796875 -0.4375 L 1.15625 -1.453125 L 1.53125 -1.453125 L 0.9375 0.09375 C 0.894531 0.21875 0.84375 0.316406 0.78125 0.390625 C 0.726562 0.460938 0.664062 0.515625 0.59375 0.546875 C 0.519531 0.585938 0.425781 0.609375 0.3125 0.609375 Z M 0.3125 0.609375 "/></g></g><g transform="translate(93.712293, 28.263047)"><g><path d="M 0.59375 0.03125 C 0.46875 0.03125 0.367188 -0.00390625 0.296875 -0.078125 C 0.234375 -0.148438 0.203125 -0.257812 0.203125 -0.40625 L 0.203125 -2.03125 L 0.5625 -2.03125 L 0.5625 -0.40625 C 0.5625 -0.320312 0.597656 -0.28125 0.671875 -0.28125 C 0.691406 -0.28125 0.710938 -0.285156 0.734375 -0.296875 L 0.765625 -0.28125 L 0.796875 0 C 0.773438 0.0078125 0.742188 0.015625 0.703125 0.015625 C 0.671875 0.0234375 0.632812 0.03125 0.59375 0.03125 Z M 0.59375 0.03125 "/></g></g><g transform="translate(94.542966, 28.263047)"><g><path d="M 1.4375 -0.640625 L 0.5 -0.640625 C 0.507812 -0.515625 0.546875 -0.421875 0.609375 -0.359375 C 0.671875 -0.304688 0.753906 -0.28125 0.859375 -0.28125 C 0.941406 -0.28125 1.007812 -0.296875 1.0625 -0.328125 C 1.113281 -0.359375 1.15625 -0.40625 1.1875 -0.46875 L 1.21875 -0.46875 L 1.453125 -0.3125 C 1.410156 -0.207031 1.335938 -0.125 1.234375 -0.0625 C 1.140625 0 1.015625 0.03125 0.859375 0.03125 C 0.710938 0.03125 0.582031 0.00390625 0.46875 -0.046875 C 0.363281 -0.109375 0.28125 -0.195312 0.21875 -0.3125 C 0.15625 -0.425781 0.125 -0.5625 0.125 -0.71875 C 0.125 -0.882812 0.15625 -1.023438 0.21875 -1.140625 C 0.28125 -1.253906 0.363281 -1.335938 0.46875 -1.390625 C 0.582031 -1.441406 0.703125 -1.46875 0.828125 -1.46875 C 1.035156 -1.46875 1.191406 -1.414062 1.296875 -1.3125 C 1.410156 -1.207031 1.46875 -1.046875 1.46875 -0.828125 C 1.46875 -0.753906 1.460938 -0.695312 1.453125 -0.65625 Z M 1.125 -0.875 C 1.113281 -0.988281 1.082031 -1.066406 1.03125 -1.109375 C 0.988281 -1.160156 0.921875 -1.1875 0.828125 -1.1875 C 0.648438 -1.1875 0.546875 -1.082031 0.515625 -0.875 Z M 1.125 -0.875 "/></g></g><g transform="translate(96.113907, 28.263047)"><g/></g><g transform="translate(96.746739, 28.263047)"><g><path d="M 0.203125 0.59375 L 0.203125 -1.453125 L 0.578125 -1.453125 L 0.578125 -1.265625 L 0.59375 -1.25 C 0.632812 -1.320312 0.691406 -1.375 0.765625 -1.40625 C 0.835938 -1.445312 0.925781 -1.46875 1.03125 -1.46875 C 1.144531 -1.46875 1.242188 -1.441406 1.328125 -1.390625 C 1.410156 -1.335938 1.476562 -1.253906 1.53125 -1.140625 C 1.582031 -1.023438 1.609375 -0.882812 1.609375 -0.71875 C 1.609375 -0.550781 1.582031 -0.410156 1.53125 -0.296875 C 1.476562 -0.191406 1.40625 -0.109375 1.3125 -0.046875 C 1.21875 0.00390625 1.113281 0.03125 1 0.03125 C 0.90625 0.03125 0.828125 0.015625 0.765625 -0.015625 C 0.703125 -0.046875 0.644531 -0.09375 0.59375 -0.15625 L 0.578125 -0.15625 L 0.578125 0.59375 Z M 0.90625 -0.28125 C 1.007812 -0.28125 1.085938 -0.316406 1.140625 -0.390625 C 1.203125 -0.460938 1.234375 -0.570312 1.234375 -0.71875 C 1.234375 -0.875 1.203125 -0.988281 1.140625 -1.0625 C 1.085938 -1.132812 1.007812 -1.171875 0.90625 -1.171875 C 0.800781 -1.171875 0.71875 -1.132812 0.65625 -1.0625 C 0.59375 -0.988281 0.5625 -0.875 0.5625 -0.71875 C 0.5625 -0.570312 0.59375 -0.460938 0.65625 -0.390625 C 0.71875 -0.316406 0.800781 -0.28125 0.90625 -0.28125 Z M 0.90625 -0.28125 "/></g></g><g transform="translate(98.477526, 28.263047)"><g><path d="M 0.203125 0 L 0.203125 -1.453125 L 0.5625 -1.453125 L 0.5625 -1.234375 L 0.59375 -1.234375 C 0.625 -1.304688 0.664062 -1.359375 0.71875 -1.390625 C 0.78125 -1.429688 0.851562 -1.453125 0.9375 -1.453125 C 1.019531 -1.453125 1.082031 -1.441406 1.125 -1.421875 L 1.0625 -1.109375 L 1.03125 -1.09375 C 1.007812 -1.101562 0.988281 -1.109375 0.96875 -1.109375 C 0.945312 -1.117188 0.921875 -1.125 0.890625 -1.125 C 0.785156 -1.125 0.707031 -1.085938 0.65625 -1.015625 C 0.601562 -0.941406 0.578125 -0.828125 0.578125 -0.671875 L 0.578125 0 Z M 0.203125 0 "/></g></g><g transform="translate(99.610858, 28.263047)"><g><path d="M 0.84375 0.03125 C 0.695312 0.03125 0.570312 0.00390625 0.46875 -0.046875 C 0.363281 -0.109375 0.28125 -0.195312 0.21875 -0.3125 C 0.15625 -0.425781 0.125 -0.5625 0.125 -0.71875 C 0.125 -0.882812 0.15625 -1.019531 0.21875 -1.125 C 0.28125 -1.238281 0.363281 -1.320312 0.46875 -1.375 C 0.570312 -1.4375 0.695312 -1.46875 0.84375 -1.46875 C 0.976562 -1.46875 1.097656 -1.4375 1.203125 -1.375 C 1.316406 -1.320312 1.398438 -1.238281 1.453125 -1.125 C 1.515625 -1.019531 1.546875 -0.882812 1.546875 -0.71875 C 1.546875 -0.5625 1.515625 -0.425781 1.453125 -0.3125 C 1.398438 -0.195312 1.316406 -0.109375 1.203125 -0.046875 C 1.097656 0.00390625 0.976562 0.03125 0.84375 0.03125 Z M 0.84375 -0.28125 C 1.0625 -0.28125 1.171875 -0.425781 1.171875 -0.71875 C 1.171875 -0.875 1.140625 -0.988281 1.078125 -1.0625 C 1.023438 -1.132812 0.945312 -1.171875 0.84375 -1.171875 C 0.613281 -1.171875 0.5 -1.019531 0.5 -0.71875 C 0.5 -0.425781 0.613281 -0.28125 0.84375 -0.28125 Z M 0.84375 -0.28125 "/></g></g><g transform="translate(101.290547, 28.263047)"><g><path d="M 0.71875 0.03125 C 0.601562 0.03125 0.5 0.00390625 0.40625 -0.046875 C 0.320312 -0.109375 0.253906 -0.191406 0.203125 -0.296875 C 0.148438 -0.410156 0.125 -0.550781 0.125 -0.71875 C 0.125 -0.882812 0.148438 -1.023438 0.203125 -1.140625 C 0.253906 -1.253906 0.328125 -1.335938 0.421875 -1.390625 C 0.515625 -1.441406 0.617188 -1.46875 0.734375 -1.46875 C 0.828125 -1.46875 0.90625 -1.453125 0.96875 -1.421875 C 1.03125 -1.390625 1.085938 -1.34375 1.140625 -1.28125 L 1.15625 -1.296875 L 1.15625 -2.03125 L 1.53125 -2.03125 L 1.53125 0 L 1.15625 0 L 1.15625 -0.1875 L 1.140625 -0.1875 C 1.097656 -0.125 1.039062 -0.0703125 0.96875 -0.03125 C 0.894531 0.0078125 0.8125 0.03125 0.71875 0.03125 Z M 0.828125 -0.28125 C 0.929688 -0.28125 1.015625 -0.316406 1.078125 -0.390625 C 1.140625 -0.460938 1.171875 -0.570312 1.171875 -0.71875 C 1.171875 -0.875 1.140625 -0.988281 1.078125 -1.0625 C 1.015625 -1.132812 0.929688 -1.171875 0.828125 -1.171875 C 0.722656 -1.171875 0.640625 -1.132812 0.578125 -1.0625 C 0.523438 -0.988281 0.5 -0.875 0.5 -0.71875 C 0.5 -0.570312 0.523438 -0.460938 0.578125 -0.390625 C 0.640625 -0.316406 0.722656 -0.28125 0.828125 -0.28125 Z M 0.828125 -0.28125 "/></g></g><g transform="translate(103.022644, 28.263047)"><g><path d="M 0.65625 0.03125 C 0.5 0.03125 0.378906 -0.0078125 0.296875 -0.09375 C 0.222656 -0.1875 0.1875 -0.316406 0.1875 -0.484375 L 0.1875 -1.453125 L 0.546875 -1.453125 L 0.546875 -0.53125 C 0.546875 -0.445312 0.5625 -0.382812 0.59375 -0.34375 C 0.632812 -0.300781 0.695312 -0.28125 0.78125 -0.28125 C 0.882812 -0.28125 0.960938 -0.3125 1.015625 -0.375 C 1.078125 -0.445312 1.109375 -0.550781 1.109375 -0.6875 L 1.109375 -1.453125 L 1.46875 -1.453125 L 1.46875 0 L 1.109375 0 L 1.109375 -0.21875 L 1.09375 -0.21875 C 1.039062 -0.132812 0.976562 -0.0703125 0.90625 -0.03125 C 0.84375 0.0078125 0.757812 0.03125 0.65625 0.03125 Z M 0.65625 0.03125 "/></g></g><g transform="translate(104.694472, 28.263047)"><g><path d="M 0.84375 0.03125 C 0.707031 0.03125 0.582031 0.00390625 0.46875 -0.046875 C 0.363281 -0.109375 0.28125 -0.195312 0.21875 -0.3125 C 0.15625 -0.425781 0.125 -0.5625 0.125 -0.71875 C 0.125 -0.882812 0.15625 -1.019531 0.21875 -1.125 C 0.28125 -1.238281 0.363281 -1.320312 0.46875 -1.375 C 0.570312 -1.4375 0.695312 -1.46875 0.84375 -1.46875 C 1.144531 -1.46875 1.335938 -1.359375 1.421875 -1.140625 L 1.171875 -0.96875 L 1.140625 -0.96875 C 1.117188 -1.03125 1.082031 -1.078125 1.03125 -1.109375 C 0.976562 -1.148438 0.914062 -1.171875 0.84375 -1.171875 C 0.738281 -1.171875 0.65625 -1.132812 0.59375 -1.0625 C 0.53125 -0.988281 0.5 -0.875 0.5 -0.71875 C 0.5 -0.570312 0.53125 -0.460938 0.59375 -0.390625 C 0.65625 -0.316406 0.738281 -0.28125 0.84375 -0.28125 C 0.925781 -0.28125 0.992188 -0.300781 1.046875 -0.34375 C 1.097656 -0.382812 1.132812 -0.445312 1.15625 -0.53125 L 1.1875 -0.53125 L 1.453125 -0.390625 C 1.410156 -0.265625 1.335938 -0.160156 1.234375 -0.078125 C 1.140625 -0.00390625 1.007812 0.03125 0.84375 0.03125 Z M 0.84375 0.03125 "/></g></g><g transform="translate(106.184181, 28.263047)"><g><path d="M 1 -0.34375 L 1.09375 -0.078125 C 1.050781 -0.046875 1 -0.0195312 0.9375 0 C 0.882812 0.0195312 0.820312 0.03125 0.75 0.03125 C 0.59375 0.03125 0.472656 -0.0078125 0.390625 -0.09375 C 0.304688 -0.1875 0.265625 -0.3125 0.265625 -0.46875 L 0.265625 -1.15625 L 0.046875 -1.15625 L 0.046875 -1.453125 L 0.265625 -1.453125 L 0.265625 -1.734375 L 0.625 -1.796875 L 0.625 -1.453125 L 1.03125 -1.453125 L 1.03125 -1.15625 L 0.625 -1.15625 L 0.625 -0.5 C 0.625 -0.425781 0.640625 -0.375 0.671875 -0.34375 C 0.703125 -0.3125 0.742188 -0.296875 0.796875 -0.296875 C 0.867188 -0.296875 0.925781 -0.3125 0.96875 -0.34375 Z M 1 -0.34375 "/></g></g><g transform="translate(107.307031, 28.263047)"><g><path d="M 0.671875 0.03125 C 0.578125 0.03125 0.488281 0.0195312 0.40625 0 C 0.320312 -0.03125 0.25 -0.0625 0.1875 -0.09375 C 0.132812 -0.132812 0.09375 -0.1875 0.0625 -0.25 L 0.265625 -0.453125 L 0.296875 -0.453125 C 0.347656 -0.390625 0.40625 -0.34375 0.46875 -0.3125 C 0.53125 -0.28125 0.601562 -0.265625 0.6875 -0.265625 C 0.75 -0.265625 0.796875 -0.273438 0.828125 -0.296875 C 0.867188 -0.328125 0.890625 -0.363281 0.890625 -0.40625 C 0.890625 -0.445312 0.875 -0.476562 0.84375 -0.5 C 0.820312 -0.53125 0.785156 -0.550781 0.734375 -0.5625 L 0.53125 -0.609375 C 0.394531 -0.640625 0.289062 -0.691406 0.21875 -0.765625 C 0.15625 -0.835938 0.125 -0.925781 0.125 -1.03125 C 0.125 -1.125 0.144531 -1.203125 0.1875 -1.265625 C 0.238281 -1.335938 0.304688 -1.390625 0.390625 -1.421875 C 0.472656 -1.453125 0.570312 -1.46875 0.6875 -1.46875 C 0.8125 -1.46875 0.914062 -1.445312 1 -1.40625 C 1.082031 -1.375 1.148438 -1.328125 1.203125 -1.265625 L 1.015625 -1.0625 L 0.984375 -1.0625 C 0.941406 -1.101562 0.894531 -1.132812 0.84375 -1.15625 C 0.789062 -1.175781 0.738281 -1.1875 0.6875 -1.1875 C 0.539062 -1.1875 0.46875 -1.144531 0.46875 -1.0625 C 0.46875 -1.019531 0.476562 -0.984375 0.5 -0.953125 C 0.53125 -0.929688 0.578125 -0.914062 0.640625 -0.90625 L 0.828125 -0.859375 C 0.972656 -0.828125 1.078125 -0.773438 1.140625 -0.703125 C 1.210938 -0.640625 1.25 -0.550781 1.25 -0.4375 C 1.25 -0.34375 1.222656 -0.257812 1.171875 -0.1875 C 1.128906 -0.125 1.066406 -0.0703125 0.984375 -0.03125 C 0.898438 0.0078125 0.796875 0.03125 0.671875 0.03125 Z M 0.671875 0.03125 "/></g></g></g><g fill="#000000" fill-opacity="1"><g transform="translate(108.640388, 28.263047)"><g/></g></g></svg>